<svg width="32" height="32" viewBox="0 0 32 32" fill="none" xmlns="http://www.w3.org/2000/svg">
<path d="M25.3927 20.8015H17.7971C17.0053 20.8015 16.3633 20.1594 16.3633 19.3677C16.3633 18.5758 17.0053 17.9338 17.7971 17.9338H25.3927C26.1845 17.9338 26.8265 18.5758 26.8265 19.3677C26.8265 20.1595 26.1845 20.8015 25.3927 20.8015ZM25.3927 25.2599H17.7971C17.0053 25.2599 16.3633 24.6178 16.3633 23.8261C16.3633 23.0342 17.0053 22.3922 17.7971 22.3922H25.3927C26.1845 22.3922 26.8265 23.0342 26.8265 23.8261C26.8265 24.6179 26.1845 25.2599 25.3927 25.2599ZM22.0859 29.6703H17.7971C17.0053 29.6703 16.3633 29.0283 16.3633 28.2365C16.3633 27.4448 17.0053 26.8027 17.7971 26.8027H22.0859C22.8776 26.8027 23.5197 27.4448 23.5197 28.2365C23.5197 29.0283 22.8776 29.6703 22.0859 29.6703Z" fill="black"/>
<path d="M9.81374 18.2464C9.11681 18.0388 8.39341 17.9335 7.66621 17.9339C3.85372 17.9339 0.751953 20.7581 0.751953 24.2295C0.751953 27.7008 3.85372 30.525 7.66621 30.525C11.4788 30.525 14.5806 27.7008 14.5806 24.2295C14.5804 24.0219 14.5691 23.8145 14.5467 23.6082C14.5683 23.5093 14.5804 23.4068 14.5804 23.3014V10.4504L19.3187 7.86548V8.91011L16.3648 10.4668V13.7085L21.4211 11.0436C21.6521 10.9219 21.8454 10.7395 21.9803 10.5159C22.1151 10.2924 22.1864 10.0363 22.1864 9.77522V5.45C22.1864 5.20126 22.1217 4.95681 21.9986 4.74064C21.8756 4.52448 21.6984 4.34405 21.4845 4.21708C21.2706 4.0901 21.0274 4.02095 20.7787 4.01641C20.53 4.01188 20.2844 4.07212 20.0661 4.19121L12.4599 8.34059C12.2338 8.46392 12.045 8.64589 11.9136 8.86738C11.7821 9.08886 11.7127 9.34169 11.7127 9.59926V13.7564C11.7124 13.7756 11.7124 13.7947 11.7127 13.8138V23.3014L11.7128 23.3037V24.2295C11.7128 26.1196 9.89747 27.6573 7.66621 27.6573C5.43495 27.6573 3.61961 26.1196 3.61961 24.2295C3.61961 22.3393 5.43495 20.8016 7.66621 20.8016" fill="black"/>
</svg>
