<svg width="71" height="71" viewBox="0 0 71 71" fill="none" xmlns="http://www.w3.org/2000/svg">
<path d="M35.7832 70.6666C55.1137 70.6666 70.7832 54.9971 70.7832 35.6666C70.7832 16.3361 55.1137 0.666626 35.7832 0.666626C16.4527 0.666626 0.783203 16.3361 0.783203 35.6666C0.783203 54.9971 16.4527 70.6666 35.7832 70.6666Z" fill="white"/>
<path fill-rule="evenodd" clip-rule="evenodd" d="M28.6172 22.9653C28.3078 22.7866 27.9266 22.7866 27.6172 22.9653C27.3078 23.1439 27.1172 23.474 27.1172 23.8313V47.502C27.1172 47.8592 27.3078 48.1894 27.6172 48.368C27.9266 48.5466 28.3078 48.5466 28.6172 48.368L49.1172 36.5327C49.4266 36.354 49.6172 36.0239 49.6172 35.6666C49.6172 35.3094 49.4266 34.9792 49.1172 34.8006L28.6172 22.9653Z" fill="black"/>
</svg>
