<svg width="32" height="32" viewBox="0 0 32 32" fill="none" xmlns="http://www.w3.org/2000/svg">
<path d="M26.5325 16.8799C26.3188 16.6366 26.2009 16.3238 26.2009 15.9999C26.2009 15.6761 26.3188 15.3633 26.5325 15.1199L28.2392 13.1999C28.4273 12.9902 28.5441 12.7262 28.5728 12.446C28.6015 12.1657 28.5408 11.8835 28.3992 11.6399L25.7325 7.02661C25.5924 6.7833 25.3791 6.59044 25.1229 6.47552C24.8667 6.3606 24.5808 6.32949 24.3059 6.38661L21.7992 6.89328C21.4803 6.95918 21.1482 6.90606 20.8657 6.74394C20.5832 6.58182 20.3699 6.32192 20.2659 6.01328L19.4525 3.57327C19.3631 3.30845 19.1927 3.07843 18.9654 2.91573C18.7381 2.75303 18.4654 2.66589 18.1859 2.66661H12.8525C12.5618 2.65143 12.2741 2.73184 12.0333 2.89556C11.7925 3.05928 11.612 3.2973 11.5192 3.57327L10.7725 6.01328C10.6685 6.32192 10.4552 6.58182 10.1727 6.74394C9.89021 6.90606 9.55817 6.95918 9.23921 6.89328L6.66588 6.38661C6.40528 6.34978 6.13961 6.3909 5.90234 6.50479C5.66507 6.61868 5.46681 6.80025 5.33254 7.02661L2.66588 11.6399C2.52076 11.8808 2.45551 12.1614 2.47945 12.4416C2.5034 12.7218 2.61532 12.9872 2.79921 13.1999L4.49254 15.1199C4.7063 15.3633 4.82419 15.6761 4.82419 15.9999C4.82419 16.3238 4.7063 16.6366 4.49254 16.8799L2.79921 18.7999C2.61532 19.0127 2.5034 19.2781 2.47945 19.5583C2.45551 19.8385 2.52076 20.1191 2.66588 20.3599L5.33254 24.9733C5.47267 25.2166 5.68604 25.4094 5.94221 25.5244C6.19839 25.6393 6.48431 25.6704 6.75921 25.6133L9.26588 25.1066C9.58483 25.0407 9.91688 25.0938 10.1994 25.2559C10.4818 25.4181 10.6952 25.678 10.7992 25.9866L11.6125 28.4266C11.7053 28.7026 11.8859 28.9406 12.1266 29.1043C12.3674 29.268 12.6551 29.3485 12.9459 29.3333H18.2792C18.5587 29.334 18.8314 29.2469 19.0587 29.0842C19.286 28.9215 19.4564 28.6914 19.5459 28.4266L20.3592 25.9866C20.4632 25.678 20.6766 25.4181 20.9591 25.2559C21.2415 25.0938 21.5736 25.0407 21.8925 25.1066L24.3992 25.6133C24.6741 25.6704 24.96 25.6393 25.2162 25.5244C25.4724 25.4094 25.6857 25.2166 25.8259 24.9733L28.4925 20.3599C28.6341 20.1164 28.6949 19.8342 28.6661 19.5539C28.6374 19.2737 28.5206 19.0097 28.3325 18.7999L26.5325 16.8799ZM24.5459 18.6666L25.6125 19.8666L23.9059 22.8266L22.3325 22.5066C21.3722 22.3103 20.3733 22.4734 19.5253 22.965C18.6774 23.4566 18.0394 24.2424 17.7325 25.1733L17.2259 26.6666H13.8125L13.3325 25.1466C13.0257 24.2157 12.3877 23.4299 11.5398 22.9383C10.6918 22.4468 9.69284 22.2836 8.73254 22.4799L7.15921 22.7999L5.42588 19.8533L6.49254 18.6533C7.14848 17.9199 7.51112 16.9705 7.51112 15.9866C7.51112 15.0027 7.14848 14.0533 6.49254 13.3199L5.42588 12.1199L7.13254 9.18661L8.70588 9.50661C9.66617 9.7029 10.6651 9.53978 11.5131 9.04821C12.3611 8.55663 12.999 7.77082 13.3059 6.83994L13.8125 5.33327H17.2259L17.7325 6.85327C18.0394 7.78415 18.6774 8.56996 19.5253 9.06154C20.3733 9.55312 21.3722 9.71624 22.3325 9.51994L23.9059 9.19994L25.6125 12.1599L24.5459 13.3599C23.8973 14.0916 23.5392 15.0355 23.5392 16.0133C23.5392 16.991 23.8973 17.9349 24.5459 18.6666ZM15.5192 10.6666C14.4644 10.6666 13.4332 10.9794 12.5562 11.5654C11.6791 12.1515 10.9955 12.9844 10.5919 13.959C10.1882 14.9335 10.0826 16.0059 10.2884 17.0404C10.4941 18.075 11.0021 19.0253 11.748 19.7712C12.4939 20.5171 13.4442 21.025 14.4787 21.2308C15.5133 21.4366 16.5856 21.331 17.5602 20.9273C18.5347 20.5236 19.3677 19.84 19.9537 18.963C20.5397 18.0859 20.8525 17.0548 20.8525 15.9999C20.8525 14.5855 20.2906 13.2289 19.2904 12.2287C18.2903 11.2285 16.9337 10.6666 15.5192 10.6666ZM15.5192 18.6666C14.9918 18.6666 14.4762 18.5102 14.0377 18.2172C13.5992 17.9242 13.2574 17.5077 13.0555 17.0204C12.8537 16.5332 12.8009 15.997 12.9038 15.4797C13.0067 14.9624 13.2607 14.4873 13.6336 14.1143C14.0065 13.7414 14.4817 13.4874 14.999 13.3845C15.5163 13.2816 16.0524 13.3344 16.5397 13.5363C17.027 13.7381 17.4434 14.0799 17.7365 14.5184C18.0295 14.957 18.1859 15.4725 18.1859 15.9999C18.1859 16.7072 17.9049 17.3855 17.4048 17.8856C16.9047 18.3857 16.2265 18.6666 15.5192 18.6666Z" fill="black"/>
</svg>
