<svg width="44" height="44" viewBox="0 0 44 44" fill="none" xmlns="http://www.w3.org/2000/svg">
<path d="M24.3093 6.05005C24.5963 5.84479 24.932 5.7184 25.2831 5.68348C25.6342 5.64857 25.9882 5.70636 26.31 5.85109C26.6317 5.99582 26.9099 6.22241 27.1166 6.50825C27.3234 6.7941 27.4516 7.12918 27.4883 7.48005L27.4993 7.68905V36.311C27.4995 36.6638 27.407 37.0105 27.2313 37.3164C27.0555 37.6223 26.8026 37.8768 26.4977 38.0543C26.1928 38.2319 25.8467 38.3264 25.4939 38.3284C25.1411 38.3303 24.794 38.2397 24.4872 38.0655L24.3112 37.9519L12.246 29.3334H7.33268C6.40763 29.3337 5.51664 28.9843 4.83834 28.3553C4.16005 27.7263 3.74456 26.8642 3.67518 25.9417L3.66602 25.6667V18.3334C3.66572 17.4083 4.01509 16.5173 4.64409 15.839C5.27309 15.1607 6.13523 14.7453 7.05768 14.6759L7.33268 14.6667H12.246L24.3093 6.05005ZM36.0555 12.4355C37.4011 13.6392 38.4776 15.1133 39.2146 16.7614C39.9516 18.4095 40.3326 20.1946 40.3327 22C40.3326 23.8055 39.9516 25.5905 39.2146 27.2387C38.4776 28.8868 37.4011 30.3609 36.0555 31.5645C35.8766 31.7278 35.6671 31.8539 35.4391 31.9357C35.2112 32.0175 34.9693 32.0533 34.7274 32.041C34.4855 32.0288 34.2484 31.9688 34.0299 31.8644C33.8114 31.76 33.6157 31.6134 33.4541 31.4329C33.2926 31.2525 33.1684 31.0418 33.0887 30.8131C33.009 30.5844 32.9755 30.3422 32.99 30.1004C33.0044 29.8587 33.0667 29.6222 33.1731 29.4046C33.2795 29.1871 33.4279 28.9927 33.6098 28.8329C34.5713 27.9731 35.3405 26.92 35.8671 25.7426C36.3938 24.5652 36.666 23.2899 36.666 22C36.666 19.2867 35.489 16.8484 33.6098 15.1672C33.4279 15.0073 33.2795 14.813 33.1731 14.5955C33.0667 14.3779 33.0044 14.1414 32.99 13.8996C32.9755 13.6579 33.009 13.4157 33.0887 13.187C33.1684 12.9582 33.2926 12.7476 33.4541 12.5672C33.6157 12.3867 33.8114 12.2401 34.0299 12.1357C34.2484 12.0313 34.4855 11.9713 34.7274 11.959C34.9693 11.9468 35.2112 11.9826 35.4391 12.0644C35.6671 12.1462 35.8766 12.2723 36.0555 12.4355ZM32.3888 16.5349C33.1574 17.2225 33.7724 18.0645 34.1935 19.0059C34.6146 19.9473 34.8324 20.9669 34.8327 21.9982C34.8329 23.0301 34.6154 24.0505 34.1942 24.9925C33.7731 25.9346 33.1579 26.7772 32.3888 27.4652C32.0412 27.774 31.5892 27.9391 31.1243 27.9272C30.6595 27.9152 30.2166 27.7271 29.8852 27.4009C29.5539 27.0746 29.3588 26.6347 29.3397 26.1701C29.3205 25.7055 29.4785 25.251 29.7818 24.8985L29.9432 24.7335C30.6948 24.0589 31.166 23.0854 31.166 22C31.1663 21.0616 30.8067 20.1587 30.1613 19.4774L29.9432 19.2665C29.7613 19.1067 29.6128 18.9124 29.5064 18.6948C29.4 18.4772 29.3378 18.2407 29.3233 17.999C29.3088 17.7572 29.3424 17.515 29.422 17.2863C29.5017 17.0576 29.6259 16.8469 29.7875 16.6665C29.949 16.4861 30.1447 16.3394 30.3632 16.235C30.5818 16.1307 30.8188 16.0706 31.0607 16.0584C31.3026 16.0461 31.5445 16.082 31.7725 16.1637C32.0004 16.2455 32.2099 16.3717 32.3888 16.5349Z" fill="white"/>
</svg>
