<svg width="323" height="50" viewBox="0 0 323 50" fill="none" xmlns="http://www.w3.org/2000/svg">
<g clip-path="url(#clip0_1341_43205)">
<path d="M77.5011 11.7657C77.4547 12.2821 77.4083 12.7987 77.362 13.3155C77.287 14.1668 77.2126 15.0182 77.1387 15.8696C77.1039 16.2708 77.0655 16.672 77.0382 17.0734C77.0298 17.1972 76.9836 17.2465 76.8432 17.2456C76.1125 17.2414 75.3805 17.2582 74.6517 17.2347C74.4303 17.2276 74.2106 17.1462 73.9775 17.1424C73.4799 17.1306 72.9832 17.092 72.4862 17.0678C70.858 16.9885 69.2288 16.9517 67.5984 16.9773C67.4791 16.9794 67.3344 16.9461 67.3318 17.1247C67.3318 17.1507 67.3009 17.1642 67.2714 17.163C67.2443 17.1632 67.2173 17.1592 67.1917 17.1512C66.6671 16.9482 66.1363 17.0702 65.6068 17.1218C65.5112 17.1312 65.4582 17.1716 65.4475 17.2582C65.4345 17.3626 65.4251 17.4799 65.2775 17.492C65.1202 17.505 64.9427 17.545 64.8276 17.4C64.7723 17.3305 64.7246 17.3284 64.6524 17.3658C64.3915 17.5059 64.1464 17.6689 63.9207 17.8525C63.7582 17.9804 63.8255 18.2021 63.6932 18.3058C63.5521 18.4158 63.4175 18.5104 63.3571 18.6757C63.2687 18.9183 63.1679 19.1568 63.113 19.4085C63.0962 19.4956 63.0711 19.5812 63.0382 19.6644C63.0315 19.6847 63.0204 19.7036 63.0056 19.72C62.9907 19.7364 62.9723 19.7499 62.9516 19.7597C62.9309 19.7695 62.9082 19.7754 62.8848 19.7771C62.8615 19.7788 62.8381 19.7763 62.8159 19.7696C62.7135 19.7448 62.6673 19.6753 62.6777 19.5795C62.6823 19.5354 62.6913 19.4918 62.7044 19.4492C62.7255 19.3808 62.7018 19.3445 62.6293 19.3109C62.4667 19.2355 62.4365 19.1196 62.4993 18.8874C62.536 18.7541 62.6462 18.7279 62.7755 18.7373C62.8783 18.745 62.9316 18.702 62.9706 18.6194C63.06 18.4335 63.1276 18.2483 63.1182 18.0391C63.1094 17.8478 63.1666 17.8033 63.3701 17.79C63.4455 17.785 63.5206 17.7726 63.5417 17.7033C63.5661 17.6223 63.4653 17.5683 63.4598 17.4893C63.282 17.5047 63.1045 17.5188 62.9273 17.5383C62.9069 17.5406 62.9062 17.5813 62.9182 17.6049C62.9719 17.7107 62.9296 17.8186 62.9247 17.925C62.9189 18.057 62.8341 18.1136 62.6871 18.1066C62.3689 18.0909 62.3683 18.0927 62.338 18.3845C62.3305 18.455 62.3179 18.5266 62.2516 18.5687C62.024 18.7138 62.0517 18.9584 61.9704 19.1597C61.9428 19.2284 62.0159 19.2334 62.0712 19.2396C62.3917 19.2747 62.4892 19.4165 62.3884 19.6991C62.3468 19.8153 62.2486 19.8338 62.1313 19.8338C61.8111 19.8338 61.8118 19.8339 61.7897 20.1268C61.7802 20.2542 61.7676 20.3812 61.7572 20.5083C61.7523 20.5693 61.776 20.5985 61.8511 20.592C61.9268 20.5871 62.0029 20.5871 62.0786 20.592C62.2828 20.6014 62.367 20.7007 62.3367 20.8867C62.3253 20.9566 62.2915 20.992 62.2109 20.9917C61.9671 20.9917 61.7185 21.0173 61.4812 20.9816C61.3271 20.9587 61.1698 20.9062 61.0151 20.8637C60.8977 20.8316 60.8646 20.653 60.9149 20.4649C60.9448 20.3529 61.0313 20.3232 61.1457 20.3214C61.3733 20.3181 61.3733 20.3164 61.4015 20.1118C61.4184 19.9901 61.4341 19.868 61.4536 19.7466C61.4688 19.6505 61.4341 19.6048 61.3196 19.5913C61.1217 19.5677 61.069 19.4987 61.0856 19.3242C61.1119 19.0477 61.1487 19.0088 61.3713 19.0032C61.4539 19.0012 61.5709 19.0451 61.6086 18.9581C61.6665 18.8252 61.7741 18.6928 61.7217 18.5404C61.6905 18.4415 61.6806 18.338 61.6925 18.2357C61.7025 18.1007 61.7689 18.0096 61.9372 18.022C62.0084 18.0273 62.0455 17.9946 62.0773 17.943C62.2064 17.7264 62.3719 17.5294 62.5678 17.3591C62.5948 17.3364 62.6384 17.3119 62.6263 17.2765C62.6098 17.2288 62.5535 17.247 62.5129 17.2438C62.3608 17.232 62.2337 17.2376 62.2405 17.4322C62.2438 17.5338 62.143 17.5907 62.0374 17.5845C61.8693 17.5742 61.7819 17.6606 61.6977 17.7705C61.5124 18.0122 61.3642 18.2696 61.2176 18.5331C61.0417 18.8499 60.9341 19.1771 60.834 19.5129C60.7966 19.639 60.8418 19.6853 60.9826 19.6776C61.3375 19.6585 61.3755 19.7988 61.3096 20.1227C61.2897 20.22 61.2007 20.2666 61.0905 20.2648C61.025 20.2687 60.9592 20.2635 60.8954 20.2492C60.7329 20.1991 60.7056 20.2642 60.7128 20.3924C60.7212 20.5398 60.7082 20.6872 60.7128 20.8346C60.717 20.9445 60.6803 20.9979 60.5476 20.9928C60.3477 20.9858 60.1468 20.9928 59.9466 20.9902C59.8858 20.9902 59.8052 21.007 59.7958 20.9189C59.7896 20.8817 59.7992 20.8438 59.8228 20.8129C59.8464 20.782 59.882 20.7605 59.9226 20.7526C60.0126 20.7284 60.1062 20.7385 60.1972 20.7458C60.2882 20.7532 60.3217 20.7196 60.3214 20.638C60.3214 20.5201 60.3263 20.4021 60.3383 20.2842C60.3474 20.194 60.3097 20.1548 60.2122 20.1584C60.2015 20.1584 60.1904 20.1566 60.1797 20.1584C59.8296 20.1879 59.7854 20.0145 59.8546 19.7098C59.8806 19.5972 59.9846 19.5721 60.1052 19.5624C60.2141 19.5538 60.3487 19.6355 60.4241 19.5432C60.4833 19.4707 60.4829 19.3572 60.5044 19.2608C60.5434 19.0869 60.6156 18.9222 60.676 18.7541C60.6981 18.6922 60.7199 18.6318 60.6695 18.5723C60.6094 18.5009 60.6087 18.4178 60.6123 18.3332C60.6224 18.0848 60.6588 18.0476 60.9341 18.0346C60.969 18.0344 61.0032 18.0256 61.0331 18.0092C61.0629 17.9927 61.0872 17.9692 61.1035 17.9412C61.2373 17.7447 61.3849 17.5562 61.5455 17.377C61.5689 17.3511 61.6041 17.3257 61.5898 17.2886C61.5722 17.2411 61.5215 17.2462 61.4799 17.2459C61.2956 17.2444 61.1113 17.2459 60.9273 17.2444C60.7495 17.2426 60.7388 17.2282 60.7973 17.0714C61.0095 16.504 61.2413 15.9427 61.4376 15.3703C61.7214 14.5432 61.9301 13.7008 62.1124 12.8519C62.4589 11.2419 62.8162 9.63371 63.1555 8.02226C63.3119 7.27947 63.5365 6.5579 63.9204 5.88614C64.3824 5.07815 64.931 4.31339 65.5583 3.60294C66.1392 2.94444 66.7805 2.34078 67.5496 1.85973C68.3863 1.33594 69.2964 1.01908 70.3366 1.07832C70.4609 1.08857 70.586 1.08639 70.7098 1.07184C70.9545 1.03588 71.1843 1.05828 71.4008 1.17029C71.429 1.18547 71.4614 1.19311 71.4942 1.19233C71.527 1.19154 71.5588 1.18237 71.5861 1.16587C72.022 0.93006 72.4546 0.965725 72.9061 1.14523C74.0627 1.60506 75.0515 2.26355 75.8602 3.14341C76.7847 4.14883 77.3555 5.32463 77.8229 6.54404C78.3215 7.84305 78.5409 9.19186 78.6638 10.5566C78.8263 12.3546 78.8078 14.1583 78.7808 15.9604C78.7756 16.3236 78.7649 16.687 78.7558 17.051C78.7522 17.1931 78.6976 17.2518 78.5331 17.2473C78.1922 17.2382 77.8505 17.2414 77.5095 17.2473C77.375 17.2491 77.3103 17.2137 77.3145 17.0793C77.3579 16.1084 77.3988 15.1372 77.4374 14.1656C77.4575 13.6457 77.4699 13.1251 77.4861 12.6049C77.4959 12.324 77.5291 12.0454 77.5011 11.7657ZM75.6636 14.2661C75.5196 14.3357 75.3801 14.4191 75.2228 14.4725C74.8272 14.6042 74.4557 14.565 74.1134 14.3416C74.0123 14.2753 73.9275 14.1863 74.0227 14.0684C74.1179 13.9505 74.2223 13.9873 74.3341 14.0575C74.4837 14.1577 74.6692 14.2037 74.8542 14.1866C75.2342 14.1477 75.5098 13.9472 75.7598 13.707C75.8069 13.6616 75.8134 13.6026 75.8228 13.5437C75.8817 13.1738 75.9051 12.8015 75.9321 12.4292C75.9389 12.3346 75.9109 12.298 75.8069 12.2851C75.2218 12.2117 74.6367 12.1362 74.0552 12.0543C73.9333 12.0372 73.8735 12.0787 73.8293 12.1722C73.5992 12.6494 73.5387 13.1251 73.8332 13.6018C73.9102 13.7267 73.8911 13.8343 73.7835 13.8841C73.6427 13.949 73.5559 13.8759 73.4938 13.7724C73.3544 13.5422 73.251 13.3008 73.2494 13.0326C73.2423 12.8482 73.2563 12.6637 73.291 12.482C73.1997 12.5371 73.1408 12.5786 73.0762 12.6102C73.0411 12.6303 72.9991 12.6379 72.9582 12.6313C72.9174 12.6248 72.8807 12.6046 72.8554 12.5748C72.8244 12.5464 72.8064 12.5083 72.805 12.4683C72.8036 12.4282 72.8189 12.3892 72.848 12.3591C72.8828 12.3215 72.922 12.2875 72.965 12.2577C73.1772 12.0976 73.3941 11.9423 73.6021 11.7778C73.6427 11.7419 73.6921 11.7153 73.7462 11.6999C73.8003 11.6845 73.8576 11.6809 73.9135 11.6894C74.4924 11.7645 75.072 11.8347 75.6509 11.9104C75.9704 11.9523 75.9724 11.9558 75.9795 11.6631C75.9883 11.2997 76.012 11.3412 75.6402 11.3536C75.5862 11.3554 75.5323 11.3619 75.4776 11.3657C74.8253 11.4155 74.1726 11.4662 73.5198 11.5131C73.3973 11.5219 73.2819 11.4901 73.2696 11.358C73.2572 11.226 73.3697 11.1836 73.4906 11.1712C73.6573 11.1541 73.8251 11.1441 73.9922 11.1323C74.5912 11.0901 75.1903 11.0465 75.7894 11.0079C75.9382 10.9984 75.9932 10.943 75.988 10.8045C75.9753 10.4508 75.973 10.0971 75.9597 9.74336C75.9299 8.95799 75.8307 8.17605 75.6632 7.40503C75.5144 6.7206 75.3057 6.04914 75.1211 5.3712C75.0638 5.16221 75.0034 4.95382 74.9442 4.74542C74.9442 4.92051 74.9634 5.09118 74.9819 5.26184C75.0745 6.11173 75.167 6.96162 75.2595 7.81151C75.3541 8.68576 75.4461 9.56061 75.5433 10.4349C75.5544 10.5342 75.5254 10.5696 75.4133 10.5584C75.1445 10.5313 74.8747 10.5106 74.6055 10.4853C74.5343 10.4785 74.4622 10.4667 74.4501 10.383C74.3968 10.4145 74.3634 10.4602 74.2766 10.4511C73.4701 10.3653 72.6627 10.2887 71.8556 10.2079C70.8388 10.1062 69.8224 10.0016 68.8053 9.90106C68.6102 9.8819 68.5875 9.86244 68.6102 9.67763C68.7286 8.73145 68.8596 7.78645 69.0101 6.84381L69.129 6.10014C69.091 6.1377 69.0653 6.18415 69.0549 6.23425C68.7299 7.46654 68.4048 8.69893 68.0798 9.93142C68.0512 10.0396 68.0924 10.0788 68.203 10.1083C68.6203 10.2132 69.0357 10.3258 69.4515 10.4355C69.642 10.4856 69.7187 10.569 69.679 10.6836C69.6416 10.7924 69.5334 10.8183 69.3504 10.7688C68.9769 10.668 68.6028 10.5707 68.2283 10.4702C67.9566 10.3971 67.9595 10.3547 67.8977 10.6444C67.8704 10.7727 67.8139 10.7871 67.6838 10.7376C67.5278 10.6786 67.4713 10.5999 67.5398 10.4561C67.5504 10.4333 67.5566 10.4091 67.5581 10.3845C67.5675 10.2492 67.4368 10.2686 67.3549 10.2397C67.273 10.2108 67.2249 10.2433 67.206 10.3243C67.1537 10.5551 67.0961 10.785 67.0412 11.0155C67.0344 11.045 67.0152 11.0777 67.0438 11.099C67.0818 11.1284 67.1179 11.0951 67.1439 11.0757C67.3065 10.9542 67.4768 10.9716 67.664 11.0303C67.8938 11.1028 68.1311 11.1558 68.3645 11.2195C68.9195 11.3706 69.4742 11.5224 70.0288 11.6749C70.1458 11.7067 70.2313 11.7654 70.1952 11.8863C70.1591 12.0071 70.0493 12.0336 69.9231 12.0021C69.8396 11.9821 69.7567 11.9582 69.6732 11.9381C69.6332 11.9287 69.5893 11.8969 69.5513 11.9305C69.5132 11.9641 69.5513 12.0045 69.5633 12.0389C69.6511 12.2568 69.6771 12.4787 69.6134 12.7048C69.5838 12.8094 69.5035 12.8663 69.3835 12.8448C69.2727 12.8251 69.223 12.7511 69.2298 12.6491C69.2327 12.6099 69.2431 12.5713 69.2477 12.5312C69.2929 12.1589 68.9854 11.6908 68.5797 11.6336C68.3281 11.5964 68.0828 11.5298 67.8499 11.4356C67.5522 11.3177 67.3019 11.3522 67.0523 11.5269C67.0156 11.5501 66.9848 11.5802 66.9621 11.6151C66.9393 11.6499 66.9251 11.6888 66.9203 11.7292C66.8553 12.1253 66.9099 12.525 66.8816 12.9188C66.8546 13.2961 67.0402 13.4968 67.3871 13.6295C67.442 13.6507 67.4943 13.6772 67.5496 13.6952C67.9423 13.8214 68.3044 13.7907 68.6223 13.5236C68.7523 13.4155 68.8648 13.4084 68.9454 13.4942C69.026 13.5799 69.0049 13.6858 68.8787 13.7889C68.6008 14.015 68.2806 14.1347 67.9013 14.1196C67.6169 14.1082 67.3633 14.02 67.1183 13.8983C66.9609 13.8202 66.945 13.8284 66.9577 13.9914C66.986 14.3537 67.0243 14.7151 67.0536 15.0773C67.0812 15.4219 67.0792 15.4198 67.4573 15.4349C68.2143 15.4643 68.9714 15.4956 69.7281 15.5324C69.8363 15.5377 69.9004 15.543 69.8926 15.4145C69.8877 15.3308 69.954 15.2671 70.0489 15.248C70.1438 15.2288 70.2183 15.2651 70.2456 15.342C70.2992 15.4929 70.4305 15.5566 70.5758 15.6005C71.1746 15.7821 71.7785 15.7809 72.3815 15.62C72.5229 15.5822 72.6741 15.5363 72.7413 15.3906C72.7891 15.2904 72.8616 15.1996 73.0014 15.2589C73.1314 15.3137 73.1639 15.4234 73.1018 15.5336C73.0303 15.6639 73.0983 15.6881 73.2175 15.6925C73.8351 15.7155 74.4508 15.7367 75.0671 15.7635C75.1945 15.7691 75.2514 15.7172 75.2907 15.6161C75.4487 15.2029 75.579 14.7815 75.6808 14.354C75.6872 14.3393 75.689 14.3234 75.686 14.3078C75.6829 14.2923 75.6752 14.2779 75.6636 14.2661ZM69.4453 4.27174L69.4239 4.25966C69.4144 4.27646 69.4037 4.29297 69.3962 4.31036C69.0582 5.11269 68.7201 5.91473 68.4103 6.72738C68.0336 7.71453 67.6777 8.70846 67.3786 9.71831C67.3425 9.83916 67.3659 9.89516 67.507 9.92817C67.6481 9.96119 67.7099 9.93436 67.7482 9.80231C67.8883 9.31802 68.0408 8.83668 68.1883 8.35475C68.6066 6.99355 69.0256 5.63255 69.4453 4.27174ZM68.3606 16.3863C68.03 16.3863 67.6998 16.3863 67.3695 16.3863C67.3068 16.3863 67.2265 16.376 67.2395 16.4715C67.2509 16.5502 67.2327 16.651 67.3789 16.6407C67.4976 16.6322 67.6166 16.6219 67.7365 16.6198C68.8251 16.6024 69.9144 16.6198 71.0013 16.6493C71.3205 16.6578 71.6397 16.6675 71.9586 16.6835C72.807 16.7259 73.6551 16.7719 74.5031 16.8167C74.5466 16.8214 74.5906 16.8192 74.6332 16.8102C74.6675 16.8009 74.6973 16.7812 74.7175 16.7544C74.7378 16.7276 74.7472 16.6952 74.7443 16.6628C74.7401 16.6039 74.6663 16.6266 74.6228 16.6245C74.3091 16.611 73.9954 16.6018 73.6801 16.5883C72.9829 16.5588 72.2856 16.5246 71.5884 16.4975C70.5128 16.4565 69.4385 16.3787 68.3606 16.3863ZM63.5479 10.6748L63.5193 10.6733C63.5098 10.7161 63.4988 10.7588 63.4916 10.8018C63.3447 11.6891 63.1991 12.5766 63.0821 13.4679C62.9673 14.3446 62.8822 15.2232 62.8022 16.1028C62.7957 16.1735 62.7564 16.2723 62.8224 16.3118C62.8968 16.356 62.9618 16.2623 63.0294 16.2287C63.1052 16.1906 63.2027 16.1735 63.2092 16.0624C63.2508 15.3377 63.2951 14.6132 63.3421 13.8889C63.3798 13.3064 63.4231 12.7243 63.4604 12.1418C63.492 11.6531 63.5189 11.1638 63.5479 10.6748ZM67.4872 15.7933C67.4362 15.7933 67.3549 15.7933 67.2736 15.7933C67.2161 15.7933 67.1595 15.8039 67.1592 15.8702C67.1589 15.9365 67.1654 16.0046 67.2532 16.022C67.3069 16.0292 67.3614 16.0312 67.4157 16.0279C67.9358 16.0279 68.4558 16.0123 68.9759 16.03C70.2033 16.0721 71.4304 16.1293 72.6578 16.1815C72.9504 16.1939 73.2429 16.211 73.5332 16.2245C73.9707 16.2457 74.4085 16.2661 74.8464 16.2882C74.9332 16.2926 75.0089 16.2693 75.0144 16.1874C75.0203 16.0786 74.9134 16.124 74.8565 16.1208C74.3218 16.0913 73.787 16.0536 73.2517 16.0432C72.8798 16.0362 72.508 15.9681 72.1348 16.0376C71.7672 16.1024 71.3901 16.1103 71.0195 16.0612C70.7771 16.0318 70.5479 15.9339 70.3073 15.9203C69.3774 15.8685 68.4471 15.8351 67.4872 15.7933ZM63.5339 17.1232C63.7332 17.082 63.9756 17.0893 64.0732 17.168C64.1424 17.2238 64.1863 17.2158 64.2536 17.1731C64.5702 16.9711 64.9313 16.8765 65.3071 16.8146C65.4046 16.799 65.5066 16.802 65.6285 16.7448C65.206 16.6269 64.8218 16.509 64.4518 16.7884C64.4169 16.812 64.3737 16.8234 64.3303 16.8205C64.001 16.7905 63.7848 16.9924 63.5339 17.1232ZM62.7775 17.1654C62.8783 17.0737 62.8799 16.9431 63.0158 16.9228C63.3304 16.8754 63.5524 16.6611 63.8303 16.5464C63.9295 16.5057 63.9243 16.3955 63.8954 16.3244C63.8612 16.236 63.7689 16.2808 63.7003 16.3079C63.4328 16.4146 63.1919 16.5638 62.941 16.6973C62.7359 16.8073 62.7417 16.9602 62.7775 17.1654Z" fill="white"/>
<path d="M71.2325 18.8874C71.07 18.8997 70.9074 18.872 70.7482 18.8579C70.6484 18.8493 70.5567 18.814 70.572 18.7076C70.5873 18.6012 70.689 18.5991 70.7865 18.6068C71.3515 18.6513 71.9099 18.6407 72.4417 18.4317C72.5555 18.3872 72.6644 18.3323 72.7745 18.2808C72.8561 18.2424 72.9426 18.2109 73.0021 18.2996C73.0687 18.3978 72.9871 18.4564 72.9065 18.5001C72.5392 18.699 72.1374 18.8087 71.7158 18.8603C71.5562 18.8797 71.3953 18.8997 71.2325 18.8874Z" fill="white"/>
<path d="M64.7195 18.239C64.7146 18.5043 64.6724 18.545 64.3964 18.5411C64.1276 18.5373 64.0593 18.4822 64.0616 18.2709C64.0645 18.0191 64.138 17.9437 64.3779 17.9466C64.662 17.9507 64.7234 18.0032 64.7195 18.239Z" fill="white"/>
<path d="M65.4855 17.6958C65.4894 17.4792 65.5629 17.391 65.7371 17.3931C66.0726 17.3966 66.1463 17.4485 66.1424 17.6775C66.1382 17.9134 66.0644 18 65.8733 17.9994C65.5616 17.9982 65.4813 17.9355 65.4855 17.6958Z" fill="white"/>
<path d="M65.201 19.296C65.1981 19.5389 65.136 19.6019 64.9016 19.5987C64.6035 19.5946 64.5441 19.5439 64.547 19.3016C64.5499 19.0593 64.612 19.0012 64.8512 19.0051C65.1321 19.0098 65.2029 19.0687 65.201 19.296Z" fill="white"/>
<path d="M64.0326 19.4738C64.0277 19.7391 63.9803 19.7851 63.7118 19.781C63.4277 19.7771 63.3708 19.7297 63.3763 19.5015C63.3825 19.2442 63.4348 19.1997 63.7261 19.2044C63.991 19.2088 64.0368 19.2492 64.0326 19.4738Z" fill="white"/>
<path d="M62.4408 20.0005C62.7148 20.0043 62.7691 20.0497 62.7658 20.2711C62.7613 20.5307 62.7119 20.5806 62.4613 20.5773C62.1612 20.5735 62.1057 20.5293 62.1096 20.2982C62.1128 20.0456 62.1681 19.9963 62.4408 20.0005Z" fill="white"/>
<path d="M63.433 20.8719C63.1729 20.8678 63.0992 20.818 63.1037 20.6496C63.1118 20.336 63.1518 20.2915 63.4232 20.2959C63.6947 20.3004 63.7707 20.357 63.7668 20.5574C63.7616 20.8191 63.7008 20.8763 63.433 20.8719Z" fill="white"/>
</g>
<path d="M94.0129 18.256C93.2449 18.256 92.6102 18.144 92.1089 17.92C91.6075 17.6853 91.2075 17.3653 90.9089 16.96C90.6102 16.5547 90.3862 16.08 90.2369 15.536C90.0875 14.992 89.9862 14.4053 89.9329 13.776H89.1809V18H85.6769V6.992H90.2049C91.9542 6.992 93.2129 7.30133 93.9809 7.92C94.7595 8.528 95.1489 9.35467 95.1489 10.4C95.1489 11.0293 94.9782 11.5947 94.6369 12.096C94.2955 12.5867 93.7462 12.9973 92.9889 13.328C93.0315 13.5627 93.0689 13.7547 93.1009 13.904C93.1329 14.0533 93.1809 14.2187 93.2449 14.4C93.3835 14.784 93.5542 15.0507 93.7569 15.2C93.9702 15.3493 94.2582 15.424 94.6209 15.424C94.8555 15.424 95.0902 15.392 95.3249 15.328L95.5169 17.952C95.3035 18.0373 95.0742 18.1067 94.8289 18.16C94.5942 18.224 94.3222 18.256 94.0129 18.256ZM89.1809 11.584H89.7889C90.5782 11.584 91.1329 11.4987 91.4529 11.328C91.7835 11.1467 91.9489 10.8427 91.9489 10.416C91.9489 10.0533 91.8155 9.792 91.5489 9.632C91.2822 9.46133 90.8609 9.376 90.2849 9.376H89.1809V11.584ZM96.4094 18V7.456L99.7854 6.96V11.632C100.009 11.0773 100.361 10.6453 100.841 10.336C101.321 10.0267 101.897 9.872 102.569 9.872C103.615 9.872 104.425 10.2347 105.001 10.96C105.577 11.6747 105.865 12.688 105.865 14V18H102.489V13.824C102.489 12.8747 102.105 12.4 101.337 12.4C100.879 12.4 100.505 12.5707 100.217 12.912C99.9294 13.2427 99.7854 13.6907 99.7854 14.256V18H96.4094ZM111.524 21.12C111.118 21.12 110.74 21.0933 110.388 21.04C110.036 20.9867 109.758 20.9227 109.556 20.848L109.812 18.528C110.004 18.5707 110.212 18.6027 110.436 18.624C110.66 18.656 110.878 18.672 111.092 18.672C111.806 18.672 112.318 18.5227 112.628 18.224C112.948 17.9253 113.108 17.4667 113.108 16.848V15.936C112.852 16.5867 112.489 17.0613 112.02 17.36C111.55 17.648 110.996 17.792 110.356 17.792C109.364 17.792 108.596 17.4347 108.052 16.72C107.508 15.9947 107.236 14.976 107.236 13.664V9.984H110.612V13.84C110.612 14.7893 110.948 15.264 111.62 15.264C112.036 15.264 112.366 15.0933 112.612 14.752C112.868 14.4107 112.996 13.9627 112.996 13.408V9.984H116.372V16.128C116.372 17.8347 115.95 19.0933 115.108 19.904C114.265 20.7147 113.07 21.12 111.524 21.12ZM117.972 18V9.984H121.3V11.728C121.535 11.1307 121.871 10.672 122.308 10.352C122.756 10.032 123.316 9.872 123.988 9.872C124.649 9.872 125.209 10.0373 125.668 10.368C126.137 10.688 126.468 11.104 126.66 11.616C127.023 11.072 127.449 10.6453 127.94 10.336C128.441 10.0267 129.044 9.872 129.748 9.872C130.74 9.872 131.508 10.2347 132.052 10.96C132.596 11.6747 132.868 12.688 132.868 14V18H129.492V13.824C129.492 12.8747 129.156 12.4 128.484 12.4C128.068 12.4 127.732 12.5707 127.476 12.912C127.231 13.2427 127.108 13.6907 127.108 14.256V18H123.732V13.824C123.732 13.3227 123.647 12.96 123.476 12.736C123.305 12.512 123.055 12.4 122.724 12.4C122.308 12.4 121.972 12.5653 121.716 12.896C121.471 13.216 121.348 13.6693 121.348 14.256V18H117.972ZM138.602 18.128C137.695 18.128 136.895 17.952 136.202 17.6C135.508 17.248 134.964 16.7627 134.57 16.144C134.186 15.5147 133.994 14.7947 133.994 13.984C133.994 13.152 134.191 12.432 134.586 11.824C134.991 11.2053 135.54 10.7253 136.234 10.384C136.927 10.0427 137.722 9.872 138.618 9.872C139.535 9.872 140.34 10.048 141.034 10.4C141.727 10.7413 142.266 11.2213 142.65 11.84C143.034 12.448 143.226 13.1627 143.226 13.984C143.226 14.8053 143.028 15.5307 142.634 16.16C142.25 16.7787 141.711 17.264 141.018 17.616C140.324 17.9573 139.519 18.128 138.602 18.128ZM138.634 15.728C139.071 15.728 139.428 15.568 139.706 15.248C139.994 14.9173 140.138 14.496 140.138 13.984C140.138 13.472 139.999 13.056 139.722 12.736C139.444 12.4053 139.092 12.24 138.666 12.24C138.207 12.24 137.834 12.4053 137.546 12.736C137.268 13.056 137.13 13.472 137.13 13.984C137.13 14.496 137.268 14.9173 137.546 15.248C137.834 15.568 138.196 15.728 138.634 15.728ZM147.001 18.128C146.521 18.128 146.036 18.08 145.545 17.984C145.054 17.888 144.612 17.7547 144.217 17.584L144.681 15.568C144.926 15.696 145.262 15.808 145.689 15.904C146.116 15.9893 146.494 16.032 146.825 16.032C147.358 16.032 147.625 15.888 147.625 15.6C147.625 15.4613 147.54 15.36 147.369 15.296C147.209 15.232 146.996 15.1787 146.729 15.136C146.473 15.0827 146.196 15.0187 145.897 14.944C145.598 14.8587 145.316 14.736 145.049 14.576C144.793 14.4053 144.58 14.1653 144.409 13.856C144.249 13.5467 144.169 13.1413 144.169 12.64C144.169 11.7973 144.5 11.1253 145.161 10.624C145.833 10.1227 146.75 9.872 147.913 9.872C148.361 9.872 148.777 9.904 149.161 9.968C149.556 10.032 149.929 10.1653 150.281 10.368L149.945 12.32C149.38 12.0853 148.788 11.968 148.169 11.968C147.774 11.968 147.486 12 147.305 12.064C147.134 12.128 147.049 12.2347 147.049 12.384C147.049 12.5013 147.134 12.592 147.305 12.656C147.476 12.72 147.694 12.784 147.961 12.848C148.238 12.9013 148.526 12.9813 148.825 13.088C149.124 13.184 149.406 13.3227 149.673 13.504C149.95 13.6853 150.174 13.9307 150.345 14.24C150.516 14.5387 150.601 14.928 150.601 15.408C150.601 16.2613 150.286 16.928 149.657 17.408C149.028 17.888 148.142 18.128 147.001 18.128ZM154.298 18.128C153.818 18.128 153.333 18.08 152.842 17.984C152.351 17.888 151.909 17.7547 151.514 17.584L151.978 15.568C152.223 15.696 152.559 15.808 152.986 15.904C153.413 15.9893 153.791 16.032 154.122 16.032C154.655 16.032 154.922 15.888 154.922 15.6C154.922 15.4613 154.837 15.36 154.666 15.296C154.506 15.232 154.293 15.1787 154.026 15.136C153.77 15.0827 153.493 15.0187 153.194 14.944C152.895 14.8587 152.613 14.736 152.346 14.576C152.09 14.4053 151.877 14.1653 151.706 13.856C151.546 13.5467 151.466 13.1413 151.466 12.64C151.466 11.7973 151.797 11.1253 152.458 10.624C153.13 10.1227 154.047 9.872 155.21 9.872C155.658 9.872 156.074 9.904 156.458 9.968C156.853 10.032 157.226 10.1653 157.578 10.368L157.242 12.32C156.677 12.0853 156.085 11.968 155.466 11.968C155.071 11.968 154.783 12 154.602 12.064C154.431 12.128 154.346 12.2347 154.346 12.384C154.346 12.5013 154.431 12.592 154.602 12.656C154.773 12.72 154.991 12.784 155.258 12.848C155.535 12.9013 155.823 12.9813 156.122 13.088C156.421 13.184 156.703 13.3227 156.97 13.504C157.247 13.6853 157.471 13.9307 157.642 14.24C157.813 14.5387 157.898 14.928 157.898 15.408C157.898 16.2613 157.583 16.928 156.954 17.408C156.325 17.888 155.439 18.128 154.298 18.128Z" fill="white"/>
<line x1="165.297" y1="3" x2="165.297" y2="19" stroke="white"/>
<path d="M172.483 16.5V6.31818H175.923C176.719 6.31818 177.372 6.45407 177.882 6.72585C178.393 6.99432 178.77 7.36387 179.016 7.83452C179.261 8.30516 179.384 8.84044 179.384 9.44034C179.384 10.0402 179.261 10.5722 179.016 11.0362C178.77 11.5002 178.394 11.8648 177.887 12.13C177.38 12.3918 176.732 12.5227 175.943 12.5227H173.159V11.4091H175.903C176.447 11.4091 176.884 11.3295 177.216 11.1705C177.551 11.0114 177.793 10.786 177.942 10.4943C178.094 10.1993 178.17 9.84801 178.17 9.44034C178.17 9.03267 178.094 8.67637 177.942 8.37145C177.789 8.06652 177.546 7.8312 177.211 7.66548C176.876 7.49645 176.434 7.41193 175.884 7.41193H173.716V16.5H172.483ZM177.276 11.9261L179.781 16.5H178.349L175.884 11.9261H177.276ZM182.452 11.9062V16.5H181.279V6.31818H182.452V10.0568H182.552C182.731 9.66241 182.999 9.34919 183.357 9.11719C183.718 8.88187 184.199 8.7642 184.799 8.7642C185.319 8.7642 185.775 8.86861 186.166 9.07741C186.557 9.28291 186.86 9.59943 187.076 10.027C187.295 10.4512 187.404 10.9915 187.404 11.6477V16.5H186.231V11.7273C186.231 11.1207 186.073 10.6518 185.758 10.3203C185.447 9.98556 185.014 9.81818 184.461 9.81818C184.076 9.81818 183.732 9.89938 183.427 10.0618C183.125 10.2242 182.886 10.4612 182.711 10.7727C182.538 11.0843 182.452 11.4621 182.452 11.9062ZM190.033 19.3636C189.834 19.3636 189.656 19.3471 189.501 19.3139C189.345 19.2841 189.237 19.2543 189.178 19.2244L189.476 18.1903C189.761 18.2633 190.013 18.2898 190.232 18.2699C190.45 18.25 190.644 18.1522 190.813 17.9766C190.986 17.8042 191.143 17.5241 191.286 17.1364L191.504 16.5398L188.68 8.86364H189.953L192.061 14.9489H192.141L194.249 8.86364H195.521L192.28 17.6136C192.134 18.008 191.953 18.3345 191.738 18.593C191.522 18.8549 191.272 19.0488 190.987 19.1747C190.705 19.3007 190.387 19.3636 190.033 19.3636ZM197.07 16.5V8.86364H198.203V10.0568H198.303C198.462 9.64915 198.719 9.33262 199.074 9.10724C199.428 8.87855 199.854 8.7642 200.351 8.7642C200.855 8.7642 201.274 8.87855 201.609 9.10724C201.947 9.33262 202.211 9.64915 202.4 10.0568H202.479C202.675 9.66241 202.968 9.34919 203.359 9.11719C203.75 8.88187 204.219 8.7642 204.766 8.7642C205.449 8.7642 206.007 8.97798 206.441 9.40554C206.876 9.82978 207.093 10.491 207.093 11.3892V16.5H205.919V11.3892C205.919 10.8258 205.765 10.4231 205.457 10.1811C205.149 9.93916 204.786 9.81818 204.368 9.81818C203.831 9.81818 203.415 9.98059 203.12 10.3054C202.825 10.6269 202.678 11.0346 202.678 11.5284V16.5H201.485V11.2699C201.485 10.8357 201.344 10.486 201.062 10.2209C200.78 9.95241 200.417 9.81818 199.973 9.81818C199.668 9.81818 199.383 9.89938 199.118 10.0618C198.856 10.2242 198.644 10.4496 198.482 10.7379C198.323 11.023 198.243 11.3527 198.243 11.7273V16.5H197.07ZM212.34 16.6591C211.651 16.6591 211.046 16.495 210.526 16.1669C210.009 15.8388 209.604 15.3797 209.312 14.7898C209.024 14.1998 208.88 13.5104 208.88 12.7216C208.88 11.9261 209.024 11.2318 209.312 10.6385C209.604 10.0452 210.009 9.58452 210.526 9.25639C211.046 8.92827 211.651 8.7642 212.34 8.7642C213.03 8.7642 213.633 8.92827 214.15 9.25639C214.67 9.58452 215.075 10.0452 215.363 10.6385C215.655 11.2318 215.8 11.9261 215.8 12.7216C215.8 13.5104 215.655 14.1998 215.363 14.7898C215.075 15.3797 214.67 15.8388 214.15 16.1669C213.633 16.495 213.03 16.6591 212.34 16.6591ZM212.34 15.6051C212.864 15.6051 213.295 15.4709 213.633 15.2024C213.971 14.9339 214.221 14.581 214.384 14.1435C214.546 13.706 214.627 13.232 214.627 12.7216C214.627 12.2112 214.546 11.7356 214.384 11.2947C214.221 10.8539 213.971 10.4976 213.633 10.2259C213.295 9.95407 212.864 9.81818 212.34 9.81818C211.817 9.81818 211.386 9.95407 211.048 10.2259C210.71 10.4976 210.459 10.8539 210.297 11.2947C210.134 11.7356 210.053 12.2112 210.053 12.7216C210.053 13.232 210.134 13.706 210.297 14.1435C210.459 14.581 210.71 14.9339 211.048 15.2024C211.386 15.4709 211.817 15.6051 212.34 15.6051ZM223.001 10.5739L221.947 10.8722C221.88 10.6965 221.782 10.5258 221.653 10.3601C221.527 10.1911 221.355 10.0518 221.136 9.94247C220.917 9.8331 220.637 9.77841 220.296 9.77841C219.829 9.77841 219.439 9.88613 219.128 10.1016C218.819 10.3137 218.665 10.5838 218.665 10.9119C218.665 11.2036 218.771 11.4339 218.983 11.603C219.196 11.772 219.527 11.9129 219.978 12.0256L221.111 12.304C221.794 12.4697 222.303 12.7232 222.638 13.0646C222.972 13.4027 223.14 13.8385 223.14 14.3722C223.14 14.8097 223.014 15.2008 222.762 15.5455C222.513 15.8902 222.165 16.1619 221.718 16.3608C221.27 16.5597 220.75 16.6591 220.157 16.6591C219.378 16.6591 218.733 16.4901 218.223 16.152C217.712 15.8139 217.389 15.3201 217.253 14.6705L218.367 14.392C218.473 14.803 218.674 15.1113 218.969 15.3168C219.267 15.5223 219.656 15.625 220.137 15.625C220.684 15.625 221.118 15.509 221.439 15.277C221.764 15.0417 221.927 14.7599 221.927 14.4318C221.927 14.1667 221.834 13.9446 221.648 13.7656C221.463 13.5833 221.178 13.4474 220.793 13.358L219.52 13.0597C218.821 12.8939 218.307 12.6371 217.979 12.2891C217.654 11.9377 217.492 11.4986 217.492 10.9716C217.492 10.5407 217.613 10.1596 217.855 9.82812C218.1 9.49669 218.433 9.23651 218.854 9.04758C219.278 8.85866 219.759 8.7642 220.296 8.7642C221.052 8.7642 221.645 8.92992 222.076 9.26136C222.51 9.5928 222.818 10.0303 223.001 10.5739ZM230.315 10.5739L229.261 10.8722C229.195 10.6965 229.097 10.5258 228.968 10.3601C228.842 10.1911 228.669 10.0518 228.451 9.94247C228.232 9.8331 227.952 9.77841 227.61 9.77841C227.143 9.77841 226.754 9.88613 226.442 10.1016C226.134 10.3137 225.98 10.5838 225.98 10.9119C225.98 11.2036 226.086 11.4339 226.298 11.603C226.51 11.772 226.842 11.9129 227.292 12.0256L228.426 12.304C229.109 12.4697 229.617 12.7232 229.952 13.0646C230.287 13.4027 230.454 13.8385 230.454 14.3722C230.454 14.8097 230.328 15.2008 230.076 15.5455C229.828 15.8902 229.48 16.1619 229.032 16.3608C228.585 16.5597 228.065 16.6591 227.471 16.6591C226.692 16.6591 226.048 16.4901 225.537 16.152C225.027 15.8139 224.704 15.3201 224.568 14.6705L225.681 14.392C225.788 14.803 225.988 15.1113 226.283 15.3168C226.581 15.5223 226.971 15.625 227.451 15.625C227.998 15.625 228.432 15.509 228.754 15.277C229.079 15.0417 229.241 14.7599 229.241 14.4318C229.241 14.1667 229.148 13.9446 228.963 13.7656C228.777 13.5833 228.492 13.4474 228.108 13.358L226.835 13.0597C226.136 12.8939 225.622 12.6371 225.294 12.2891C224.969 11.9377 224.806 11.4986 224.806 10.9716C224.806 10.5407 224.927 10.1596 225.169 9.82812C225.415 9.49669 225.748 9.23651 226.169 9.04758C226.593 8.85866 227.074 8.7642 227.61 8.7642C228.366 8.7642 228.959 8.92992 229.39 9.26136C229.824 9.5928 230.133 10.0303 230.315 10.5739ZM233.075 16.5795C232.83 16.5795 232.62 16.4917 232.444 16.3161C232.268 16.1404 232.181 15.9299 232.181 15.6847C232.181 15.4394 232.268 15.2289 232.444 15.0533C232.62 14.8776 232.83 14.7898 233.075 14.7898C233.321 14.7898 233.531 14.8776 233.707 15.0533C233.883 15.2289 233.97 15.4394 233.97 15.6847C233.97 15.8471 233.929 15.9962 233.846 16.1321C233.767 16.268 233.659 16.3774 233.523 16.4602C233.39 16.5398 233.241 16.5795 233.075 16.5795ZM239.178 16.6591C238.462 16.6591 237.846 16.4901 237.329 16.152C236.812 15.8139 236.414 15.3482 236.135 14.755C235.857 14.1617 235.718 13.4839 235.718 12.7216C235.718 11.946 235.86 11.2616 236.145 10.6683C236.434 10.0717 236.835 9.60606 237.349 9.27131C237.866 8.93324 238.469 8.7642 239.158 8.7642C239.695 8.7642 240.179 8.86364 240.61 9.0625C241.041 9.26136 241.394 9.53977 241.669 9.89773C241.944 10.2557 242.115 10.6733 242.181 11.1506H241.008C240.918 10.8026 240.719 10.4943 240.411 10.2259C240.106 9.95407 239.695 9.81818 239.178 9.81818C238.721 9.81818 238.32 9.9375 237.975 10.1761C237.634 10.4115 237.367 10.7446 237.175 11.1754C236.986 11.603 236.891 12.1051 236.891 12.6818C236.891 13.2718 236.984 13.7855 237.17 14.223C237.358 14.6605 237.624 15.0002 237.965 15.2422C238.31 15.4841 238.714 15.6051 239.178 15.6051C239.483 15.6051 239.76 15.5521 240.008 15.446C240.257 15.34 240.467 15.1875 240.64 14.9886C240.812 14.7898 240.935 14.5511 241.008 14.2727H242.181C242.115 14.7235 241.951 15.1295 241.689 15.4908C241.43 15.8487 241.087 16.1338 240.66 16.3459C240.235 16.5547 239.742 16.6591 239.178 16.6591ZM246.998 16.6591C246.309 16.6591 245.704 16.495 245.184 16.1669C244.667 15.8388 244.262 15.3797 243.971 14.7898C243.682 14.1998 243.538 13.5104 243.538 12.7216C243.538 11.9261 243.682 11.2318 243.971 10.6385C244.262 10.0452 244.667 9.58452 245.184 9.25639C245.704 8.92827 246.309 8.7642 246.998 8.7642C247.688 8.7642 248.291 8.92827 248.808 9.25639C249.328 9.58452 249.733 10.0452 250.021 10.6385C250.313 11.2318 250.459 11.9261 250.459 12.7216C250.459 13.5104 250.313 14.1998 250.021 14.7898C249.733 15.3797 249.328 15.8388 248.808 16.1669C248.291 16.495 247.688 16.6591 246.998 16.6591ZM246.998 15.6051C247.522 15.6051 247.953 15.4709 248.291 15.2024C248.629 14.9339 248.879 14.581 249.042 14.1435C249.204 13.706 249.285 13.232 249.285 12.7216C249.285 12.2112 249.204 11.7356 249.042 11.2947C248.879 10.8539 248.629 10.4976 248.291 10.2259C247.953 9.95407 247.522 9.81818 246.998 9.81818C246.475 9.81818 246.044 9.95407 245.706 10.2259C245.368 10.4976 245.117 10.8539 244.955 11.2947C244.793 11.7356 244.711 12.2112 244.711 12.7216C244.711 13.232 244.793 13.706 244.955 14.1435C245.117 14.581 245.368 14.9339 245.706 15.2024C246.044 15.4709 246.475 15.6051 246.998 15.6051ZM252.25 16.5V8.86364H253.383V10.0568H253.483C253.642 9.64915 253.899 9.33262 254.253 9.10724C254.608 8.87855 255.034 8.7642 255.531 8.7642C256.035 8.7642 256.454 8.87855 256.789 9.10724C257.127 9.33262 257.39 9.64915 257.579 10.0568H257.659C257.854 9.66241 258.148 9.34919 258.539 9.11719C258.93 8.88187 259.399 8.7642 259.946 8.7642C260.628 8.7642 261.187 8.97798 261.621 9.40554C262.055 9.82978 262.272 10.491 262.272 11.3892V16.5H261.099V11.3892C261.099 10.8258 260.945 10.4231 260.637 10.1811C260.328 9.93916 259.966 9.81818 259.548 9.81818C259.011 9.81818 258.595 9.98059 258.3 10.3054C258.005 10.6269 257.858 11.0346 257.858 11.5284V16.5H256.664V11.2699C256.664 10.8357 256.524 10.486 256.242 10.2209C255.96 9.95241 255.597 9.81818 255.153 9.81818C254.848 9.81818 254.563 9.89938 254.298 10.0618C254.036 10.2242 253.824 10.4496 253.662 10.7379C253.502 11.023 253.423 11.3527 253.423 11.7273V16.5H252.25Z" fill="white"/>
<rect x="1.29688" y="26.5" width="321" height="23" rx="11.5" stroke="white"/>
<path d="M29.0469 44.25L26.5094 41.7125M27.8802 38.4167C27.8802 40.994 25.7909 43.0833 23.2135 43.0833C20.6362 43.0833 18.5469 40.994 18.5469 38.4167C18.5469 35.8393 20.6362 33.75 23.2135 33.75C25.7909 33.75 27.8802 35.8393 27.8802 38.4167Z" stroke="white" stroke-linecap="round" stroke-linejoin="round"/>
<path d="M37.5847 43V34.2727H41.0279C41.687 34.2727 42.2495 34.3906 42.7154 34.6264C43.1841 34.8594 43.5407 35.1903 43.785 35.6193C44.0321 36.0455 44.1557 36.5469 44.1557 37.1236C44.1557 37.7031 44.0307 38.2017 43.7807 38.6193C43.5307 39.0341 43.1685 39.3523 42.6941 39.5739C42.2225 39.7955 41.6515 39.9062 40.981 39.9062H38.6756V38.4233H40.6827C41.035 38.4233 41.3276 38.375 41.5605 38.2784C41.7935 38.1818 41.9668 38.0369 42.0804 37.8438C42.1969 37.6506 42.2551 37.4105 42.2551 37.1236C42.2551 36.8338 42.1969 36.5895 42.0804 36.3906C41.9668 36.1918 41.7921 36.0412 41.5563 35.9389C41.3233 35.8338 41.0293 35.7812 40.6742 35.7812H39.4299V43H37.5847ZM42.2978 39.0284L44.4668 43H42.4299L40.3077 39.0284H42.2978ZM47.2409 39.2159V43H45.4256V34.2727H47.1898V37.6094H47.2665C47.4142 37.223 47.6529 36.9205 47.9824 36.7017C48.312 36.4801 48.7253 36.3693 49.2225 36.3693C49.677 36.3693 50.0733 36.4688 50.4114 36.6676C50.7523 36.8636 51.0165 37.1463 51.204 37.5156C51.3944 37.8821 51.4881 38.321 51.4853 38.8324V43H49.6699V39.1562C49.6728 38.7528 49.5705 38.4389 49.3631 38.2145C49.1586 37.9901 48.8716 37.8778 48.5023 37.8778C48.2551 37.8778 48.0364 37.9304 47.8461 38.0355C47.6586 38.1406 47.5108 38.294 47.4029 38.4957C47.2978 38.6946 47.2438 38.9347 47.2409 39.2159ZM53.8002 45.4545C53.5701 45.4545 53.3542 45.4361 53.1525 45.3991C52.9537 45.3651 52.7889 45.321 52.6582 45.267L53.0673 43.9119C53.2804 43.9773 53.4721 44.0128 53.6426 44.0185C53.8159 44.0241 53.965 43.9844 54.09 43.8991C54.2179 43.8139 54.3216 43.669 54.4011 43.4645L54.5076 43.1875L52.1596 36.4545H54.0687L55.4238 41.2614H55.492L56.8599 36.4545H58.7818L56.2377 43.7074C56.1156 44.0597 55.9494 44.3665 55.7392 44.6278C55.5318 44.892 55.269 45.0952 54.9508 45.2372C54.6326 45.3821 54.2491 45.4545 53.8002 45.4545ZM59.7108 43V36.4545H61.4409V37.6094H61.5176C61.6539 37.2259 61.8812 36.9233 62.1994 36.7017C62.5176 36.4801 62.8983 36.3693 63.3414 36.3693C63.7903 36.3693 64.1724 36.4815 64.4877 36.706C64.8031 36.9276 65.0133 37.2287 65.1184 37.6094H65.1866C65.3201 37.2344 65.5616 36.9347 65.911 36.7102C66.2633 36.483 66.6795 36.3693 67.1596 36.3693C67.7704 36.3693 68.2662 36.5639 68.6468 36.9531C69.0304 37.3395 69.2221 37.8878 69.2221 38.598V43H67.411V38.956C67.411 38.5923 67.3145 38.3196 67.1213 38.1378C66.9281 37.956 66.6866 37.8651 66.3968 37.8651C66.0673 37.8651 65.8102 37.9702 65.6255 38.1804C65.4409 38.3878 65.3485 38.6619 65.3485 39.0028V43H63.5886V38.9176C63.5886 38.5966 63.4963 38.3409 63.3116 38.1506C63.1298 37.9602 62.8897 37.8651 62.5914 37.8651C62.3897 37.8651 62.2079 37.9162 62.046 38.0185C61.8869 38.1179 61.7605 38.2585 61.6667 38.4403C61.573 38.6193 61.5261 38.8295 61.5261 39.071V43H59.7108ZM73.6135 43.1278C72.9515 43.1278 72.3791 42.9872 71.8961 42.706C71.416 42.4219 71.0453 42.027 70.7839 41.5213C70.5225 41.0128 70.3919 40.4233 70.3919 39.7528C70.3919 39.0767 70.5225 38.4858 70.7839 37.9801C71.0453 37.4716 71.416 37.0767 71.8961 36.7955C72.3791 36.5114 72.9515 36.3693 73.6135 36.3693C74.2754 36.3693 74.8464 36.5114 75.3265 36.7955C75.8095 37.0767 76.1816 37.4716 76.443 37.9801C76.7044 38.4858 76.8351 39.0767 76.8351 39.7528C76.8351 40.4233 76.7044 41.0128 76.443 41.5213C76.1816 42.027 75.8095 42.4219 75.3265 42.706C74.8464 42.9872 74.2754 43.1278 73.6135 43.1278ZM73.622 41.7216C73.9231 41.7216 74.1745 41.6364 74.3762 41.4659C74.5779 41.2926 74.7299 41.0568 74.8322 40.7585C74.9373 40.4602 74.9899 40.1207 74.9899 39.7401C74.9899 39.3594 74.9373 39.0199 74.8322 38.7216C74.7299 38.4233 74.5779 38.1875 74.3762 38.0142C74.1745 37.8409 73.9231 37.7543 73.622 37.7543C73.318 37.7543 73.0623 37.8409 72.8549 38.0142C72.6504 38.1875 72.4956 38.4233 72.3904 38.7216C72.2882 39.0199 72.237 39.3594 72.237 39.7401C72.237 40.1207 72.2882 40.4602 72.3904 40.7585C72.4956 41.0568 72.6504 41.2926 72.8549 41.4659C73.0623 41.6364 73.318 41.7216 73.622 41.7216ZM83.4615 38.321L81.7995 38.4233C81.7711 38.2812 81.71 38.1534 81.6163 38.0398C81.5225 37.9233 81.399 37.831 81.2456 37.7628C81.095 37.6918 80.9146 37.6562 80.7044 37.6562C80.4231 37.6562 80.1859 37.7159 79.9927 37.8352C79.7995 37.9517 79.7029 38.108 79.7029 38.304C79.7029 38.4602 79.7654 38.5923 79.8904 38.7003C80.0154 38.8082 80.2299 38.8949 80.5339 38.9602L81.7186 39.1989C82.3549 39.3295 82.8294 39.5398 83.1419 39.8295C83.4544 40.1193 83.6106 40.5 83.6106 40.9716C83.6106 41.4006 83.4842 41.777 83.2314 42.1009C82.9814 42.4247 82.6376 42.6776 82.2001 42.8594C81.7654 43.0384 81.264 43.1278 80.6958 43.1278C79.8294 43.1278 79.139 42.9474 78.6248 42.5866C78.1135 42.223 77.8137 41.7287 77.7257 41.1037L79.5112 41.0099C79.5652 41.2741 79.6958 41.4759 79.9032 41.6151C80.1106 41.7514 80.3762 41.8196 80.7001 41.8196C81.0183 41.8196 81.274 41.7585 81.4672 41.6364C81.6632 41.5114 81.7626 41.3509 81.7654 41.1548C81.7626 40.9901 81.693 40.8551 81.5566 40.75C81.4203 40.642 81.21 40.5597 80.926 40.5028L79.7924 40.277C79.1532 40.1491 78.6774 39.9276 78.3649 39.6122C78.0552 39.2969 77.9004 38.8949 77.9004 38.4062C77.9004 37.9858 78.014 37.6236 78.2413 37.3196C78.4714 37.0156 78.7939 36.7812 79.2086 36.6165C79.6262 36.4517 80.1149 36.3693 80.6745 36.3693C81.5012 36.3693 82.1518 36.544 82.6262 36.8935C83.1035 37.2429 83.3819 37.7187 83.4615 38.321ZM90.1998 38.321L88.5378 38.4233C88.5094 38.2812 88.4483 38.1534 88.3546 38.0398C88.2608 37.9233 88.1373 37.831 87.9838 37.7628C87.8333 37.6918 87.6529 37.6562 87.4426 37.6562C87.1614 37.6562 86.9242 37.7159 86.731 37.8352C86.5378 37.9517 86.4412 38.108 86.4412 38.304C86.4412 38.4602 86.5037 38.5923 86.6287 38.7003C86.7537 38.8082 86.9682 38.8949 87.2722 38.9602L88.4569 39.1989C89.0932 39.3295 89.5676 39.5398 89.8801 39.8295C90.1926 40.1193 90.3489 40.5 90.3489 40.9716C90.3489 41.4006 90.2225 41.777 89.9696 42.1009C89.7196 42.4247 89.3759 42.6776 88.9384 42.8594C88.5037 43.0384 88.0023 43.1278 87.4341 43.1278C86.5676 43.1278 85.8773 42.9474 85.3631 42.5866C84.8517 42.223 84.552 41.7287 84.464 41.1037L86.2495 41.0099C86.3034 41.2741 86.4341 41.4759 86.6415 41.6151C86.8489 41.7514 87.1145 41.8196 87.4384 41.8196C87.7566 41.8196 88.0123 41.7585 88.2054 41.6364C88.4015 41.5114 88.5009 41.3509 88.5037 41.1548C88.5009 40.9901 88.4313 40.8551 88.2949 40.75C88.1586 40.642 87.9483 40.5597 87.6642 40.5028L86.5307 40.277C85.8915 40.1491 85.4157 39.9276 85.1032 39.6122C84.7935 39.2969 84.6387 38.8949 84.6387 38.4062C84.6387 37.9858 84.7523 37.6236 84.9796 37.3196C85.2097 37.0156 85.5321 36.7812 85.9469 36.6165C86.3645 36.4517 86.8532 36.3693 87.4128 36.3693C88.2395 36.3693 88.8901 36.544 89.3645 36.8935C89.8418 37.2429 90.1202 37.7187 90.1998 38.321ZM91.7156 35.104C91.9396 35.096 92.1436 35.088 92.3276 35.08C92.5196 35.064 92.6716 35.052 92.7836 35.044C92.9756 35.02 93.2516 34.992 93.6116 34.96C93.9796 34.92 94.3996 34.88 94.8716 34.84C95.3436 34.792 95.8516 34.744 96.3956 34.696C96.9396 34.648 97.4876 34.6 98.0396 34.552C98.4796 34.512 98.8956 34.48 99.2876 34.456C99.6796 34.424 100.044 34.4 100.38 34.384C100.716 34.36 101.016 34.344 101.28 34.336V35.296C101.056 35.296 100.8 35.3 100.512 35.308C100.224 35.316 99.9396 35.332 99.6596 35.356C99.3796 35.38 99.1356 35.424 98.9276 35.488C98.5036 35.624 98.1196 35.832 97.7756 36.112C97.4396 36.384 97.1516 36.7 96.9116 37.06C96.6716 37.42 96.4876 37.792 96.3596 38.176C96.2396 38.56 96.1796 38.932 96.1796 39.292C96.1796 39.756 96.2596 40.164 96.4196 40.516C96.5796 40.86 96.7956 41.152 97.0676 41.392C97.3476 41.632 97.6636 41.828 98.0156 41.98C98.3676 42.132 98.7396 42.248 99.1316 42.328C99.5316 42.4 99.9276 42.44 100.32 42.448L99.9716 43.444C99.5236 43.428 99.0756 43.364 98.6276 43.252C98.1796 43.148 97.7516 42.996 97.3436 42.796C96.9356 42.588 96.5716 42.328 96.2516 42.016C95.9316 41.704 95.6796 41.34 95.4956 40.924C95.3116 40.508 95.2196 40.032 95.2196 39.496C95.2196 38.872 95.3276 38.296 95.5436 37.768C95.7676 37.232 96.0516 36.764 96.3956 36.364C96.7396 35.964 97.0956 35.656 97.4636 35.44C97.2076 35.472 96.8876 35.508 96.5036 35.548C96.1276 35.588 95.7236 35.632 95.2916 35.68C94.8596 35.72 94.4236 35.768 93.9836 35.824C93.5516 35.88 93.1476 35.936 92.7716 35.992C92.3956 36.04 92.0796 36.092 91.8236 36.148L91.7156 35.104ZM99.5516 36.772C99.6396 36.9 99.7436 37.064 99.8636 37.264C99.9916 37.456 100.116 37.656 100.236 37.864C100.356 38.064 100.456 38.256 100.536 38.44L99.9236 38.728C99.7876 38.432 99.6356 38.14 99.4676 37.852C99.2996 37.556 99.1236 37.284 98.9396 37.036L99.5516 36.772ZM100.86 36.268C100.956 36.396 101.068 36.556 101.196 36.748C101.324 36.94 101.448 37.14 101.568 37.348C101.696 37.548 101.808 37.74 101.904 37.924L101.28 38.224C101.136 37.928 100.976 37.636 100.8 37.348C100.632 37.06 100.456 36.792 100.272 36.544L100.86 36.268ZM108.132 33.532H113.412V34.372H108.132V33.532ZM107.724 37.756H114.324V38.608H107.724V37.756ZM110.556 36.16H111.456V42.82C111.456 43.092 111.42 43.3 111.348 43.444C111.276 43.588 111.144 43.7 110.952 43.78C110.76 43.844 110.504 43.884 110.184 43.9C109.864 43.924 109.464 43.936 108.984 43.936C108.96 43.816 108.912 43.668 108.84 43.492C108.776 43.324 108.712 43.176 108.648 43.048C109.032 43.056 109.376 43.06 109.68 43.06C109.984 43.068 110.188 43.068 110.292 43.06C110.396 43.052 110.464 43.032 110.496 43C110.536 42.968 110.556 42.908 110.556 42.82V36.16ZM113.088 33.532H113.304L113.484 33.484L114.084 33.916C113.844 34.26 113.568 34.612 113.256 34.972C112.944 35.324 112.616 35.66 112.272 35.98C111.936 36.3 111.604 36.584 111.276 36.832C111.212 36.744 111.124 36.648 111.012 36.544C110.908 36.432 110.82 36.348 110.748 36.292C111.036 36.076 111.328 35.82 111.624 35.524C111.92 35.22 112.196 34.912 112.452 34.6C112.716 34.288 112.928 34 113.088 33.736V33.532ZM103.284 35.392H107.244V36.244H103.284V35.392ZM105.096 32.92L105.96 33.016C105.84 33.616 105.708 34.256 105.564 34.936C105.42 35.616 105.268 36.3 105.108 36.988C104.948 37.676 104.792 38.336 104.64 38.968C104.488 39.6 104.34 40.164 104.196 40.66L103.452 40.252C103.58 39.796 103.716 39.268 103.86 38.668C104.012 38.06 104.164 37.424 104.316 36.76C104.468 36.088 104.612 35.424 104.748 34.768C104.884 34.104 105 33.488 105.096 32.92ZM103.884 39.88L104.388 39.244C104.836 39.492 105.296 39.78 105.768 40.108C106.24 40.428 106.676 40.756 107.076 41.092C107.484 41.428 107.808 41.744 108.048 42.04L107.496 42.772C107.264 42.476 106.948 42.152 106.548 41.8C106.156 41.448 105.728 41.104 105.264 40.768C104.8 40.432 104.34 40.136 103.884 39.88ZM106.944 35.392H107.088L107.244 35.368L107.784 35.476C107.68 37.02 107.464 38.348 107.136 39.46C106.816 40.564 106.388 41.484 105.852 42.22C105.316 42.956 104.68 43.544 103.944 43.984C103.888 43.872 103.804 43.744 103.692 43.6C103.588 43.464 103.488 43.352 103.392 43.264C104.056 42.904 104.636 42.384 105.132 41.704C105.628 41.016 106.028 40.164 106.332 39.148C106.636 38.124 106.84 36.936 106.944 35.584V35.392ZM116.916 34.78C117.756 34.876 118.556 34.932 119.316 34.948C120.084 34.964 120.776 34.944 121.392 34.888C121.88 34.84 122.364 34.768 122.844 34.672C123.332 34.568 123.792 34.448 124.224 34.312L124.356 35.176C123.964 35.288 123.524 35.392 123.036 35.488C122.556 35.584 122.076 35.656 121.596 35.704C120.988 35.76 120.28 35.788 119.472 35.788C118.672 35.78 117.84 35.736 116.976 35.656L116.916 34.78ZM116.688 37.24C117.368 37.312 118.04 37.36 118.704 37.384C119.368 37.4 119.996 37.396 120.588 37.372C121.18 37.348 121.708 37.308 122.172 37.252C122.748 37.188 123.272 37.104 123.744 37C124.216 36.896 124.612 36.792 124.932 36.688L125.076 37.588C124.748 37.676 124.364 37.764 123.924 37.852C123.484 37.932 123.012 38.004 122.508 38.068C122.012 38.124 121.448 38.168 120.816 38.2C120.184 38.224 119.516 38.232 118.812 38.224C118.116 38.208 117.424 38.18 116.736 38.14L116.688 37.24ZM120.792 34.624C120.744 34.44 120.688 34.26 120.624 34.084C120.568 33.9 120.512 33.724 120.456 33.556L121.476 33.424C121.516 33.76 121.58 34.112 121.668 34.48C121.756 34.84 121.852 35.196 121.956 35.548C122.06 35.892 122.16 36.204 122.256 36.484C122.368 36.796 122.5 37.128 122.652 37.48C122.804 37.832 122.972 38.18 123.156 38.524C123.34 38.868 123.536 39.196 123.744 39.508C123.808 39.596 123.876 39.684 123.948 39.772C124.028 39.852 124.108 39.936 124.188 40.024L123.696 40.756C123.472 40.692 123.208 40.64 122.904 40.6C122.6 40.552 122.288 40.512 121.968 40.48C121.648 40.44 121.348 40.404 121.068 40.372L121.152 39.64C121.472 39.672 121.804 39.708 122.148 39.748C122.492 39.788 122.76 39.82 122.952 39.844C122.616 39.324 122.32 38.788 122.064 38.236C121.816 37.684 121.604 37.164 121.428 36.676C121.332 36.404 121.244 36.152 121.164 35.92C121.092 35.68 121.024 35.452 120.96 35.236C120.904 35.02 120.848 34.816 120.792 34.624ZM118.428 39.82C118.284 40.028 118.164 40.24 118.068 40.456C117.972 40.672 117.924 40.912 117.924 41.176C117.924 41.672 118.148 42.044 118.596 42.292C119.052 42.54 119.752 42.664 120.696 42.664C121.256 42.664 121.764 42.644 122.22 42.604C122.676 42.564 123.12 42.5 123.552 42.412L123.516 43.372C123.1 43.436 122.656 43.484 122.184 43.516C121.712 43.556 121.22 43.576 120.708 43.576C119.924 43.576 119.256 43.496 118.704 43.336C118.16 43.176 117.744 42.932 117.456 42.604C117.176 42.276 117.032 41.856 117.024 41.344C117.016 41 117.056 40.696 117.144 40.432C117.24 40.16 117.356 39.892 117.492 39.628L118.428 39.82ZM127.932 35.428C128.156 35.46 128.392 35.484 128.64 35.5C128.888 35.508 129.14 35.512 129.396 35.512C129.836 35.512 130.288 35.492 130.752 35.452C131.224 35.412 131.7 35.348 132.18 35.26C132.66 35.164 133.132 35.04 133.596 34.888L133.62 35.788C133.228 35.892 132.796 35.988 132.324 36.076C131.86 36.164 131.376 36.236 130.872 36.292C130.376 36.34 129.884 36.364 129.396 36.364C129.18 36.364 128.948 36.364 128.7 36.364C128.46 36.356 128.224 36.344 127.992 36.328L127.932 35.428ZM132.18 33.472C132.132 33.664 132.072 33.908 132 34.204C131.928 34.5 131.848 34.812 131.76 35.14C131.68 35.46 131.592 35.764 131.496 36.052C131.304 36.628 131.06 37.236 130.764 37.876C130.468 38.508 130.152 39.124 129.816 39.724C129.48 40.324 129.148 40.848 128.82 41.296L127.896 40.816C128.16 40.504 128.424 40.148 128.688 39.748C128.96 39.348 129.212 38.928 129.444 38.488C129.684 38.048 129.9 37.616 130.092 37.192C130.284 36.768 130.444 36.38 130.572 36.028C130.7 35.644 130.82 35.212 130.932 34.732C131.044 34.244 131.108 33.792 131.124 33.376L132.18 33.472ZM135.012 37.18C135.004 37.428 134.996 37.652 134.988 37.852C134.988 38.044 134.992 38.252 135 38.476C135.008 38.668 135.016 38.916 135.024 39.22C135.04 39.516 135.056 39.832 135.072 40.168C135.088 40.496 135.1 40.812 135.108 41.116C135.124 41.42 135.132 41.672 135.132 41.872C135.132 42.192 135.06 42.484 134.916 42.748C134.772 43.012 134.544 43.22 134.232 43.372C133.928 43.532 133.528 43.612 133.032 43.612C132.592 43.612 132.192 43.548 131.832 43.42C131.472 43.3 131.18 43.112 130.956 42.856C130.74 42.6 130.632 42.276 130.632 41.884C130.632 41.508 130.736 41.188 130.944 40.924C131.16 40.652 131.448 40.444 131.808 40.3C132.176 40.156 132.584 40.084 133.032 40.084C133.704 40.084 134.32 40.18 134.88 40.372C135.448 40.556 135.956 40.792 136.404 41.08C136.86 41.368 137.252 41.652 137.58 41.932L137.064 42.748C136.832 42.54 136.572 42.324 136.284 42.1C136.004 41.876 135.692 41.672 135.348 41.488C135.004 41.296 134.636 41.14 134.244 41.02C133.852 40.9 133.436 40.84 132.996 40.84C132.556 40.84 132.2 40.932 131.928 41.116C131.656 41.3 131.52 41.528 131.52 41.8C131.52 42.08 131.636 42.308 131.868 42.484C132.1 42.66 132.448 42.748 132.912 42.748C133.248 42.748 133.512 42.696 133.704 42.592C133.896 42.48 134.032 42.336 134.112 42.16C134.2 41.976 134.244 41.776 134.244 41.56C134.244 41.336 134.236 41.044 134.22 40.684C134.212 40.324 134.196 39.94 134.172 39.532C134.156 39.116 134.136 38.704 134.112 38.296C134.096 37.88 134.084 37.508 134.076 37.18H135.012ZM137.412 37.504C137.196 37.312 136.924 37.112 136.596 36.904C136.268 36.696 135.928 36.5 135.576 36.316C135.232 36.124 134.928 35.968 134.664 35.848L135.156 35.116C135.372 35.212 135.612 35.328 135.876 35.464C136.14 35.6 136.404 35.744 136.668 35.896C136.932 36.048 137.176 36.196 137.4 36.34C137.632 36.476 137.816 36.6 137.952 36.712L137.412 37.504ZM140.46 34.636H149.088V35.608H140.46V34.636ZM139.452 41.752H150.108V42.76H139.452V41.752ZM156.12 32.944L157.056 33.112C156.888 33.808 156.692 34.484 156.468 35.14C156.244 35.788 155.992 36.392 155.712 36.952C155.432 37.504 155.132 37.996 154.812 38.428C154.748 38.372 154.664 38.312 154.56 38.248C154.456 38.184 154.348 38.124 154.236 38.068C154.124 38.004 154.028 37.956 153.948 37.924C154.284 37.524 154.588 37.064 154.86 36.544C155.14 36.016 155.384 35.444 155.592 34.828C155.808 34.212 155.984 33.584 156.12 32.944ZM158.1 35.896H158.556V37.504C158.556 37.712 158.584 37.996 158.64 38.356C158.704 38.716 158.812 39.112 158.964 39.544C159.124 39.976 159.348 40.416 159.636 40.864C159.924 41.312 160.292 41.736 160.74 42.136C161.196 42.528 161.752 42.868 162.408 43.156C162.344 43.22 162.276 43.3 162.204 43.396C162.132 43.5 162.06 43.6 161.988 43.696C161.924 43.8 161.868 43.888 161.82 43.96C161.308 43.728 160.856 43.452 160.464 43.132C160.08 42.812 159.744 42.472 159.456 42.112C159.176 41.744 158.94 41.38 158.748 41.02C158.556 40.66 158.404 40.324 158.292 40.012C158.188 39.692 158.12 39.42 158.088 39.196C158.048 39.42 157.968 39.688 157.848 40C157.728 40.312 157.564 40.648 157.356 41.008C157.148 41.36 156.88 41.716 156.552 42.076C156.232 42.436 155.852 42.776 155.412 43.096C154.972 43.424 154.464 43.712 153.888 43.96C153.848 43.888 153.796 43.804 153.732 43.708C153.668 43.62 153.6 43.528 153.528 43.432C153.456 43.344 153.392 43.272 153.336 43.216C154.072 42.928 154.688 42.584 155.184 42.184C155.688 41.784 156.1 41.36 156.42 40.912C156.74 40.464 156.984 40.024 157.152 39.592C157.328 39.152 157.448 38.752 157.512 38.392C157.584 38.024 157.62 37.728 157.62 37.504V35.896H158.1ZM151.224 41.488C151.456 41.264 151.724 41.004 152.028 40.708C152.34 40.404 152.664 40.076 153 39.724C153.344 39.372 153.684 39.02 154.02 38.668L154.524 39.436C154.084 39.924 153.624 40.416 153.144 40.912C152.664 41.4 152.22 41.84 151.812 42.232L151.224 41.488ZM151.608 34.372L152.244 33.724C152.5 33.884 152.768 34.072 153.048 34.288C153.336 34.496 153.604 34.704 153.852 34.912C154.1 35.12 154.3 35.312 154.452 35.488L153.78 36.232C153.628 36.056 153.432 35.856 153.192 35.632C152.952 35.408 152.692 35.188 152.412 34.972C152.132 34.748 151.864 34.548 151.608 34.372ZM156.132 35.08H161.532V35.968H155.724L156.132 35.08ZM161.232 35.08H161.364L161.544 35.032L162.204 35.392C162.092 35.776 161.96 36.164 161.808 36.556C161.664 36.948 161.508 37.32 161.34 37.672C161.18 38.016 161.024 38.324 160.872 38.596C160.808 38.564 160.728 38.524 160.632 38.476C160.544 38.428 160.452 38.38 160.356 38.332C160.268 38.284 160.188 38.248 160.116 38.224C160.252 37.976 160.392 37.688 160.536 37.36C160.68 37.024 160.816 36.676 160.944 36.316C161.072 35.948 161.168 35.608 161.232 35.296V35.08ZM165.492 35.224H168.42V35.884H165.492V35.224ZM165.372 42.748H169.116V43.444H165.372V42.748ZM164.82 37.9H168.84V38.5H164.82V37.9ZM164.448 36.544H165.228V38.512C165.228 38.888 165.208 39.3 165.168 39.748C165.136 40.196 165.068 40.652 164.964 41.116C164.868 41.58 164.724 42.032 164.532 42.472C164.34 42.912 164.092 43.316 163.788 43.684C163.74 43.628 163.676 43.564 163.596 43.492C163.524 43.42 163.448 43.348 163.368 43.276C163.296 43.212 163.228 43.164 163.164 43.132C163.54 42.676 163.816 42.176 163.992 41.632C164.176 41.088 164.296 40.544 164.352 40C164.416 39.456 164.448 38.956 164.448 38.5V36.544ZM164.88 36.544H169.212V39.892H164.868V39.208H168.396V37.216H164.88V36.544ZM165.036 40.624H169.392V43.852H168.6V41.32H165.828V43.936H165.036V40.624ZM170.208 34.36H171.06V41.02H170.208V34.36ZM172.896 33.148H173.772V42.772C173.772 43.076 173.732 43.304 173.652 43.456C173.572 43.608 173.44 43.72 173.256 43.792C173.064 43.864 172.8 43.912 172.464 43.936C172.128 43.96 171.692 43.968 171.156 43.96C171.148 43.88 171.124 43.784 171.084 43.672C171.052 43.568 171.012 43.46 170.964 43.348C170.924 43.236 170.88 43.14 170.832 43.06C171.248 43.068 171.616 43.072 171.936 43.072C172.264 43.08 172.484 43.08 172.596 43.072C172.7 43.064 172.776 43.04 172.824 43C172.872 42.96 172.896 42.884 172.896 42.772V33.148ZM166.344 33.028H166.836V33.232H167.112V33.484C166.776 33.972 166.328 34.508 165.768 35.092C165.216 35.676 164.54 36.228 163.74 36.748C163.708 36.684 163.656 36.612 163.584 36.532C163.52 36.452 163.452 36.376 163.38 36.304C163.308 36.232 163.24 36.172 163.176 36.124C163.672 35.828 164.12 35.504 164.52 35.152C164.928 34.8 165.284 34.44 165.588 34.072C165.9 33.704 166.152 33.356 166.344 33.028ZM166.512 33.028H167.16C167.464 33.252 167.78 33.504 168.108 33.784C168.444 34.056 168.76 34.324 169.056 34.588C169.36 34.852 169.612 35.092 169.812 35.308L169.224 35.98C169.032 35.772 168.792 35.532 168.504 35.26C168.224 34.98 167.924 34.7 167.604 34.42C167.284 34.132 166.976 33.88 166.68 33.664H166.512V33.028ZM180.612 34.924H186.312V35.788H180.192L180.612 34.924ZM182.112 37.528H186.036V38.356H182.112V37.528ZM182.112 40.18H186.192V41.032H182.112V40.18ZM181.668 35.212H182.58V43.948H181.668V35.212ZM181.08 33.064L181.944 33.292C181.72 33.924 181.456 34.548 181.152 35.164C180.856 35.772 180.536 36.344 180.192 36.88C179.848 37.416 179.492 37.892 179.124 38.308C179.076 38.26 179.008 38.196 178.92 38.116C178.84 38.036 178.752 37.956 178.656 37.876C178.568 37.796 178.492 37.736 178.428 37.696C178.788 37.32 179.132 36.884 179.46 36.388C179.788 35.892 180.088 35.36 180.36 34.792C180.64 34.224 180.88 33.648 181.08 33.064ZM178.188 32.968L179.052 33.232C178.796 33.904 178.492 34.576 178.14 35.248C177.788 35.912 177.408 36.536 177 37.12C176.592 37.696 176.168 38.212 175.728 38.668C175.696 38.596 175.648 38.504 175.584 38.392C175.52 38.272 175.452 38.152 175.38 38.032C175.316 37.912 175.256 37.82 175.2 37.756C175.6 37.364 175.984 36.912 176.352 36.4C176.72 35.888 177.06 35.34 177.372 34.756C177.692 34.164 177.964 33.568 178.188 32.968ZM176.916 36.052L177.804 35.152L177.816 35.176V43.936H176.916V36.052ZM192.336 33.088H193.308V42.712C193.308 43.04 193.26 43.284 193.164 43.444C193.068 43.604 192.912 43.72 192.696 43.792C192.472 43.864 192.168 43.912 191.784 43.936C191.408 43.96 190.94 43.968 190.38 43.96C190.364 43.88 190.332 43.78 190.284 43.66C190.244 43.548 190.2 43.436 190.152 43.324C190.104 43.212 190.056 43.112 190.008 43.024C190.304 43.032 190.588 43.036 190.86 43.036C191.132 43.044 191.368 43.044 191.568 43.036C191.776 43.036 191.92 43.036 192 43.036C192.12 43.028 192.204 43.004 192.252 42.964C192.308 42.916 192.336 42.832 192.336 42.712V33.088ZM195.228 36.148L196.092 35.824C196.452 36.384 196.792 36.984 197.112 37.624C197.432 38.264 197.712 38.892 197.952 39.508C198.2 40.124 198.376 40.672 198.48 41.152L197.508 41.548C197.42 41.068 197.26 40.52 197.028 39.904C196.804 39.28 196.532 38.644 196.212 37.996C195.9 37.34 195.572 36.724 195.228 36.148ZM189.192 35.908L190.2 36.076C190.064 36.66 189.896 37.276 189.696 37.924C189.496 38.564 189.256 39.184 188.976 39.784C188.696 40.376 188.372 40.896 188.004 41.344C187.932 41.288 187.844 41.232 187.74 41.176C187.644 41.112 187.54 41.052 187.428 40.996C187.324 40.94 187.232 40.896 187.152 40.864C187.512 40.44 187.824 39.944 188.088 39.376C188.352 38.808 188.576 38.224 188.76 37.624C188.952 37.016 189.096 36.444 189.192 35.908ZM204.996 35.932V38.356H208.956V35.932H204.996ZM204.12 35.14H209.88V39.136H204.12V35.14ZM208.692 32.896L209.604 33.172C209.452 33.516 209.284 33.872 209.1 34.24C208.924 34.6 208.76 34.908 208.608 35.164L207.84 34.912C207.936 34.728 208.04 34.52 208.152 34.288C208.264 34.048 208.364 33.808 208.452 33.568C208.548 33.32 208.628 33.096 208.692 32.896ZM204.384 33.232L205.176 32.968C205.376 33.264 205.56 33.592 205.728 33.952C205.904 34.312 206.032 34.628 206.112 34.9L205.284 35.212C205.212 34.94 205.092 34.62 204.924 34.252C204.756 33.876 204.576 33.536 204.384 33.232ZM207.384 38.944H208.236V42.7C208.236 42.852 208.252 42.952 208.284 43C208.324 43.04 208.404 43.06 208.524 43.06C208.564 43.06 208.636 43.06 208.74 43.06C208.844 43.06 208.952 43.06 209.064 43.06C209.176 43.06 209.256 43.06 209.304 43.06C209.392 43.06 209.46 43.02 209.508 42.94C209.556 42.852 209.592 42.676 209.616 42.412C209.64 42.14 209.656 41.736 209.664 41.2C209.728 41.248 209.804 41.296 209.892 41.344C209.988 41.392 210.084 41.436 210.18 41.476C210.276 41.508 210.364 41.536 210.444 41.56C210.42 42.176 210.372 42.652 210.3 42.988C210.236 43.324 210.132 43.556 209.988 43.684C209.852 43.812 209.656 43.876 209.4 43.876C209.36 43.876 209.292 43.876 209.196 43.876C209.108 43.876 209.008 43.876 208.896 43.876C208.792 43.876 208.692 43.876 208.596 43.876C208.508 43.876 208.444 43.876 208.404 43.876C208.124 43.876 207.912 43.84 207.768 43.768C207.624 43.696 207.524 43.576 207.468 43.408C207.412 43.24 207.384 43.008 207.384 42.712V38.944ZM205.416 38.968H206.316C206.276 39.52 206.212 40.048 206.124 40.552C206.036 41.048 205.904 41.512 205.728 41.944C205.552 42.368 205.308 42.756 204.996 43.108C204.692 43.46 204.3 43.768 203.82 44.032C203.788 43.952 203.736 43.868 203.664 43.78C203.6 43.692 203.528 43.604 203.448 43.516C203.376 43.436 203.304 43.372 203.232 43.324C203.8 43.036 204.236 42.672 204.54 42.232C204.844 41.792 205.056 41.296 205.176 40.744C205.296 40.192 205.376 39.6 205.416 38.968ZM199.8 36.616H203.184V37.336H199.8V36.616ZM199.872 33.34H203.172V34.06H199.872V33.34ZM199.8 38.26H203.184V38.968H199.8V38.26ZM199.224 34.948H203.592V35.692H199.224V34.948ZM200.22 39.904H203.256V43.396H200.22V42.664H202.452V40.648H200.22V39.904ZM199.776 39.904H200.568V43.948H199.776V39.904ZM216.288 33.508C216.24 33.748 216.176 34.032 216.096 34.36C216.024 34.68 215.904 35.044 215.736 35.452C215.592 35.812 215.412 36.184 215.196 36.568C214.988 36.952 214.764 37.3 214.524 37.612C214.676 37.516 214.848 37.436 215.04 37.372C215.232 37.3 215.428 37.248 215.628 37.216C215.836 37.184 216.024 37.168 216.192 37.168C216.656 37.168 217.048 37.3 217.368 37.564C217.688 37.82 217.848 38.196 217.848 38.692C217.848 38.844 217.848 39.04 217.848 39.28C217.848 39.512 217.848 39.76 217.848 40.024C217.856 40.28 217.864 40.532 217.872 40.78C217.88 41.028 217.884 41.244 217.884 41.428H216.96C216.968 41.268 216.976 41.08 216.984 40.864C216.992 40.648 216.996 40.42 216.996 40.18C217.004 39.94 217.004 39.712 216.996 39.496C216.996 39.28 216.996 39.096 216.996 38.944C216.996 38.592 216.888 38.336 216.672 38.176C216.464 38.008 216.2 37.924 215.88 37.924C215.504 37.924 215.132 38.008 214.764 38.176C214.404 38.336 214.088 38.544 213.816 38.8C213.64 38.968 213.464 39.16 213.288 39.376C213.12 39.584 212.932 39.808 212.724 40.048L211.908 39.448C212.484 38.888 212.964 38.364 213.348 37.876C213.732 37.388 214.044 36.936 214.284 36.52C214.524 36.096 214.712 35.716 214.848 35.38C214.976 35.044 215.08 34.708 215.16 34.372C215.24 34.028 215.288 33.712 215.304 33.424L216.288 33.508ZM212.184 34.804C212.504 34.844 212.852 34.876 213.228 34.9C213.604 34.924 213.932 34.936 214.212 34.936C214.748 34.936 215.324 34.924 215.94 34.9C216.556 34.868 217.176 34.824 217.8 34.768C218.432 34.712 219.032 34.632 219.6 34.528L219.588 35.416C219.172 35.488 218.728 35.548 218.256 35.596C217.784 35.636 217.304 35.672 216.816 35.704C216.328 35.728 215.856 35.748 215.4 35.764C214.952 35.772 214.536 35.776 214.152 35.776C213.984 35.776 213.788 35.776 213.564 35.776C213.348 35.768 213.12 35.76 212.88 35.752C212.64 35.736 212.408 35.72 212.184 35.704V34.804ZM221.352 37.708C221.248 37.732 221.132 37.768 221.004 37.816C220.884 37.856 220.76 37.9 220.632 37.948C220.512 37.996 220.396 38.044 220.284 38.092C219.868 38.252 219.384 38.448 218.832 38.68C218.28 38.912 217.716 39.18 217.14 39.484C216.74 39.684 216.388 39.896 216.084 40.12C215.78 40.336 215.54 40.564 215.364 40.804C215.188 41.036 215.1 41.292 215.1 41.572C215.1 41.804 215.152 41.992 215.256 42.136C215.368 42.28 215.524 42.392 215.724 42.472C215.924 42.544 216.152 42.592 216.408 42.616C216.672 42.64 216.96 42.652 217.272 42.652C217.736 42.652 218.264 42.628 218.856 42.58C219.456 42.524 220.02 42.452 220.548 42.364L220.524 43.324C220.22 43.364 219.876 43.4 219.492 43.432C219.116 43.464 218.732 43.488 218.34 43.504C217.956 43.528 217.588 43.54 217.236 43.54C216.668 43.54 216.148 43.488 215.676 43.384C215.212 43.28 214.84 43.096 214.56 42.832C214.28 42.568 214.14 42.192 214.14 41.704C214.14 41.344 214.224 41.016 214.392 40.72C214.56 40.416 214.784 40.14 215.064 39.892C215.352 39.644 215.668 39.416 216.012 39.208C216.356 38.992 216.708 38.796 217.068 38.62C217.452 38.412 217.812 38.232 218.148 38.08C218.492 37.928 218.816 37.788 219.12 37.66C219.424 37.532 219.708 37.404 219.972 37.276C220.148 37.196 220.316 37.12 220.476 37.048C220.636 36.976 220.796 36.896 220.956 36.808L221.352 37.708ZM227.556 37.528H234.144V39.652H233.304V38.26H228.372V39.652H227.556V37.528ZM231.396 39.064H232.248V42.676C232.248 42.82 232.264 42.912 232.296 42.952C232.328 42.992 232.408 43.012 232.536 43.012C232.576 43.012 232.648 43.012 232.752 43.012C232.864 43.012 232.976 43.012 233.088 43.012C233.2 43.012 233.28 43.012 233.328 43.012C233.416 43.012 233.48 42.976 233.52 42.904C233.568 42.832 233.6 42.684 233.616 42.46C233.64 42.228 233.656 41.884 233.664 41.428C233.728 41.476 233.804 41.524 233.892 41.572C233.98 41.612 234.072 41.652 234.168 41.692C234.264 41.724 234.352 41.752 234.432 41.776C234.408 42.312 234.36 42.728 234.288 43.024C234.224 43.328 234.124 43.536 233.988 43.648C233.852 43.76 233.664 43.816 233.424 43.816C233.384 43.816 233.316 43.816 233.22 43.816C233.124 43.816 233.02 43.816 232.908 43.816C232.804 43.816 232.704 43.816 232.608 43.816C232.52 43.816 232.456 43.816 232.416 43.816C232.144 43.816 231.932 43.78 231.78 43.708C231.636 43.644 231.536 43.528 231.48 43.36C231.424 43.2 231.396 42.972 231.396 42.676V39.064ZM229.332 39.052H230.184C230.152 39.7 230.096 40.284 230.016 40.804C229.936 41.316 229.804 41.772 229.62 42.172C229.436 42.564 229.176 42.908 228.84 43.204C228.512 43.508 228.08 43.764 227.544 43.972C227.512 43.9 227.464 43.82 227.4 43.732C227.344 43.644 227.28 43.556 227.208 43.468C227.144 43.388 227.08 43.32 227.016 43.264C227.504 43.088 227.896 42.876 228.192 42.628C228.488 42.38 228.712 42.088 228.864 41.752C229.024 41.408 229.136 41.016 229.2 40.576C229.264 40.128 229.308 39.62 229.332 39.052ZM227.604 34H234.096V34.756H227.604V34ZM228 35.884H233.736V36.64H228V35.884ZM230.34 32.908H231.228V36.28H230.34V32.908ZM223.74 36.556H226.98V37.264H223.74V36.556ZM223.812 33.34H226.944V34.06H223.812V33.34ZM223.74 38.152H226.98V38.872H223.74V38.152ZM223.224 34.912H227.316V35.668H223.224V34.912ZM224.16 39.772H226.992V43.264H224.16V42.52H226.224V40.516H224.16V39.772ZM223.728 39.772H224.496V43.828H223.728V39.772ZM237.444 34.204C237.596 34.212 237.752 34.22 237.912 34.228C238.08 34.236 238.224 34.24 238.344 34.24C238.504 34.24 238.708 34.236 238.956 34.228C239.212 34.22 239.476 34.208 239.748 34.192C240.02 34.176 240.276 34.164 240.516 34.156C240.756 34.14 240.936 34.128 241.056 34.12C241.176 34.104 241.284 34.088 241.38 34.072C241.484 34.048 241.576 34.02 241.656 33.988L242.256 34.48C242.2 34.544 242.144 34.608 242.088 34.672C242.04 34.736 241.992 34.804 241.944 34.876C241.816 35.084 241.664 35.38 241.488 35.764C241.312 36.14 241.124 36.552 240.924 37C240.732 37.44 240.54 37.864 240.348 38.272C240.228 38.544 240.096 38.84 239.952 39.16C239.816 39.472 239.676 39.792 239.532 40.12C239.388 40.44 239.244 40.74 239.1 41.02C238.964 41.3 238.832 41.532 238.704 41.716C238.488 42.02 238.26 42.236 238.02 42.364C237.78 42.484 237.504 42.544 237.192 42.544C236.744 42.544 236.372 42.396 236.076 42.1C235.78 41.804 235.632 41.404 235.632 40.9C235.632 40.452 235.732 40.036 235.932 39.652C236.14 39.26 236.424 38.92 236.784 38.632C237.152 38.344 237.588 38.12 238.092 37.96C238.604 37.8 239.164 37.72 239.772 37.72C240.444 37.72 241.092 37.8 241.716 37.96C242.348 38.112 242.936 38.312 243.48 38.56C244.032 38.8 244.532 39.056 244.98 39.328C245.436 39.592 245.824 39.84 246.144 40.072L245.7 41.104C245.348 40.8 244.952 40.5 244.512 40.204C244.072 39.9 243.592 39.624 243.072 39.376C242.552 39.128 242 38.928 241.416 38.776C240.84 38.624 240.244 38.548 239.628 38.548C238.972 38.548 238.408 38.66 237.936 38.884C237.472 39.1 237.116 39.38 236.868 39.724C236.628 40.06 236.508 40.412 236.508 40.78C236.508 41.044 236.58 41.248 236.724 41.392C236.876 41.528 237.044 41.596 237.228 41.596C237.364 41.596 237.488 41.564 237.6 41.5C237.712 41.436 237.828 41.328 237.948 41.176C238.076 41.008 238.204 40.804 238.332 40.564C238.46 40.324 238.588 40.064 238.716 39.784C238.844 39.504 238.968 39.22 239.088 38.932C239.208 38.644 239.328 38.376 239.448 38.128C239.608 37.776 239.768 37.412 239.928 37.036C240.096 36.66 240.26 36.296 240.42 35.944C240.588 35.592 240.74 35.272 240.876 34.984C240.756 34.992 240.584 35 240.36 35.008C240.144 35.016 239.908 35.028 239.652 35.044C239.396 35.052 239.152 35.064 238.92 35.08C238.696 35.088 238.516 35.096 238.38 35.104C238.252 35.112 238.108 35.124 237.948 35.14C237.788 35.148 237.636 35.16 237.492 35.176L237.444 34.204ZM244.944 36.832C244.904 37.68 244.82 38.452 244.692 39.148C244.564 39.844 244.368 40.472 244.104 41.032C243.84 41.592 243.48 42.096 243.024 42.544C242.568 42.984 241.992 43.376 241.296 43.72L240.504 43.06C241.208 42.764 241.78 42.412 242.22 42.004C242.66 41.588 243 41.144 243.24 40.672C243.488 40.192 243.66 39.708 243.756 39.22C243.86 38.732 243.932 38.268 243.972 37.828C243.98 37.644 243.984 37.456 243.984 37.264C243.992 37.072 243.988 36.892 243.972 36.724L244.944 36.832ZM253.644 33.472C253.628 33.576 253.612 33.692 253.596 33.82C253.588 33.948 253.58 34.1 253.572 34.276C253.572 34.396 253.568 34.576 253.56 34.816C253.56 35.056 253.56 35.328 253.56 35.632C253.56 35.928 253.56 36.228 253.56 36.532C253.56 36.836 253.56 37.116 253.56 37.372C253.56 37.772 253.568 38.192 253.584 38.632C253.6 39.072 253.62 39.5 253.644 39.916C253.668 40.332 253.688 40.712 253.704 41.056C253.72 41.4 253.728 41.672 253.728 41.872C253.728 42.152 253.66 42.42 253.524 42.676C253.396 42.932 253.176 43.14 252.864 43.3C252.56 43.468 252.144 43.552 251.616 43.552C250.752 43.552 250.092 43.4 249.636 43.096C249.18 42.8 248.952 42.364 248.952 41.788C248.952 41.42 249.06 41.1 249.276 40.828C249.5 40.556 249.82 40.344 250.236 40.192C250.652 40.032 251.148 39.952 251.724 39.952C252.356 39.952 252.948 40.028 253.5 40.18C254.06 40.324 254.572 40.508 255.036 40.732C255.5 40.956 255.912 41.192 256.272 41.44C256.632 41.68 256.928 41.896 257.16 42.088L256.608 42.94C256.336 42.684 256.02 42.428 255.66 42.172C255.308 41.916 254.92 41.68 254.496 41.464C254.08 41.248 253.628 41.076 253.14 40.948C252.66 40.812 252.148 40.744 251.604 40.744C251.028 40.744 250.588 40.84 250.284 41.032C249.988 41.224 249.84 41.46 249.84 41.74C249.84 41.916 249.896 42.08 250.008 42.232C250.12 42.376 250.3 42.492 250.548 42.58C250.796 42.668 251.116 42.712 251.508 42.712C251.74 42.712 251.952 42.684 252.144 42.628C252.336 42.564 252.488 42.456 252.6 42.304C252.72 42.152 252.78 41.94 252.78 41.668C252.78 41.436 252.772 41.136 252.756 40.768C252.748 40.392 252.736 39.996 252.72 39.58C252.704 39.156 252.688 38.748 252.672 38.356C252.664 37.964 252.66 37.636 252.66 37.372C252.66 37.1 252.66 36.824 252.66 36.544C252.66 36.256 252.66 35.972 252.66 35.692C252.66 35.412 252.66 35.144 252.66 34.888C252.668 34.632 252.672 34.4 252.672 34.192C252.672 34.096 252.668 33.972 252.66 33.82C252.652 33.668 252.64 33.552 252.624 33.472H253.644ZM249.048 34.78C249.248 34.812 249.48 34.844 249.744 34.876C250.008 34.908 250.284 34.94 250.572 34.972C250.868 34.996 251.148 35.016 251.412 35.032C251.684 35.04 251.92 35.044 252.12 35.044C252.88 35.044 253.656 35.016 254.448 34.96C255.248 34.904 256.036 34.812 256.812 34.684L256.8 35.56C256.36 35.608 255.88 35.656 255.36 35.704C254.84 35.752 254.304 35.792 253.752 35.824C253.208 35.856 252.668 35.872 252.132 35.872C251.852 35.872 251.52 35.86 251.136 35.836C250.752 35.812 250.372 35.784 249.996 35.752C249.628 35.72 249.316 35.692 249.06 35.668L249.048 34.78ZM248.988 37.324C249.204 37.356 249.444 37.388 249.708 37.42C249.972 37.452 250.244 37.476 250.524 37.492C250.804 37.508 251.072 37.524 251.328 37.54C251.584 37.548 251.812 37.552 252.012 37.552C252.596 37.552 253.16 37.54 253.704 37.516C254.256 37.484 254.796 37.444 255.324 37.396C255.86 37.34 256.388 37.272 256.908 37.192L256.896 38.092C256.496 38.148 256.096 38.196 255.696 38.236C255.304 38.268 254.908 38.296 254.508 38.32C254.116 38.344 253.712 38.364 253.296 38.38C252.888 38.388 252.456 38.392 252 38.392C251.728 38.392 251.412 38.384 251.052 38.368C250.7 38.352 250.34 38.332 249.972 38.308C249.612 38.284 249.288 38.256 249 38.224L248.988 37.324ZM262.848 33.652C262.816 33.852 262.792 34.056 262.776 34.264C262.76 34.464 262.748 34.664 262.74 34.864C262.724 35.2 262.708 35.616 262.692 36.112C262.676 36.608 262.66 37.136 262.644 37.696C262.628 38.248 262.616 38.8 262.608 39.352C262.6 39.904 262.596 40.4 262.596 40.84C262.596 41.28 262.68 41.632 262.848 41.896C263.016 42.16 263.248 42.348 263.544 42.46C263.84 42.572 264.18 42.628 264.564 42.628C265.108 42.628 265.6 42.56 266.04 42.424C266.48 42.28 266.872 42.092 267.216 41.86C267.56 41.62 267.864 41.352 268.128 41.056C268.4 40.76 268.644 40.456 268.86 40.144L269.544 40.96C269.336 41.248 269.08 41.548 268.776 41.86C268.48 42.164 268.128 42.448 267.72 42.712C267.312 42.976 266.84 43.192 266.304 43.36C265.776 43.528 265.184 43.612 264.528 43.612C263.96 43.612 263.456 43.524 263.016 43.348C262.576 43.172 262.232 42.888 261.984 42.496C261.736 42.104 261.612 41.584 261.612 40.936C261.612 40.576 261.616 40.18 261.624 39.748C261.632 39.308 261.644 38.856 261.66 38.392C261.676 37.928 261.688 37.476 261.696 37.036C261.704 36.588 261.712 36.176 261.72 35.8C261.728 35.424 261.732 35.112 261.732 34.864C261.732 34.64 261.724 34.424 261.708 34.216C261.692 34.008 261.668 33.816 261.636 33.64L262.848 33.652ZM277.212 35.548C277.196 35.636 277.18 35.78 277.164 35.98C277.148 36.18 277.14 36.364 277.14 36.532C277.14 36.66 277.14 36.84 277.14 37.072C277.14 37.304 277.14 37.548 277.14 37.804C277.14 38.06 277.14 38.296 277.14 38.512C277.14 38.768 277.144 39.068 277.152 39.412C277.168 39.756 277.184 40.112 277.2 40.48C277.224 40.84 277.244 41.18 277.26 41.5C277.276 41.82 277.284 42.084 277.284 42.292C277.284 42.548 277.224 42.788 277.104 43.012C276.984 43.236 276.792 43.416 276.528 43.552C276.272 43.696 275.92 43.768 275.472 43.768C275.008 43.768 274.592 43.704 274.224 43.576C273.856 43.456 273.568 43.276 273.36 43.036C273.16 42.804 273.06 42.512 273.06 42.16C273.06 41.664 273.28 41.268 273.72 40.972C274.16 40.668 274.792 40.516 275.616 40.516C276.12 40.516 276.6 40.576 277.056 40.696C277.512 40.808 277.94 40.96 278.34 41.152C278.74 41.344 279.1 41.552 279.42 41.776C279.748 42 280.032 42.224 280.272 42.448L279.768 43.288C279.528 43.04 279.252 42.796 278.94 42.556C278.628 42.316 278.288 42.1 277.92 41.908C277.56 41.708 277.176 41.552 276.768 41.44C276.368 41.32 275.952 41.26 275.52 41.26C275.04 41.26 274.652 41.336 274.356 41.488C274.06 41.632 273.912 41.844 273.912 42.124C273.912 42.356 274.04 42.552 274.296 42.712C274.552 42.864 274.912 42.94 275.376 42.94C275.704 42.94 275.952 42.856 276.12 42.688C276.288 42.512 276.372 42.284 276.372 42.004C276.372 41.796 276.364 41.548 276.348 41.26C276.34 40.964 276.328 40.652 276.312 40.324C276.296 39.988 276.28 39.656 276.264 39.328C276.256 39 276.252 38.708 276.252 38.452C276.252 38.284 276.252 38.076 276.252 37.828C276.252 37.58 276.252 37.34 276.252 37.108C276.252 36.868 276.252 36.68 276.252 36.544C276.252 36.36 276.244 36.172 276.228 35.98C276.212 35.78 276.192 35.636 276.168 35.548H277.212ZM276.708 37.396C276.868 37.396 277.084 37.392 277.356 37.384C277.636 37.368 277.94 37.352 278.268 37.336C278.596 37.32 278.924 37.3 279.252 37.276C279.58 37.252 279.872 37.224 280.128 37.192L280.14 38.032C279.892 38.064 279.604 38.092 279.276 38.116C278.956 38.132 278.628 38.148 278.292 38.164C277.964 38.18 277.66 38.192 277.38 38.2C277.108 38.208 276.884 38.212 276.708 38.212V37.396ZM291.408 39.004C291.408 38.668 291.32 38.372 291.144 38.116C290.976 37.852 290.736 37.648 290.424 37.504C290.12 37.352 289.764 37.276 289.356 37.276C288.892 37.276 288.456 37.312 288.048 37.384C287.64 37.456 287.268 37.54 286.932 37.636C286.604 37.732 286.32 37.812 286.08 37.876C285.896 37.932 285.716 37.992 285.54 38.056C285.372 38.12 285.216 38.184 285.072 38.248L284.76 37.132C284.928 37.116 285.108 37.092 285.3 37.06C285.5 37.028 285.688 36.992 285.864 36.952C286.152 36.888 286.484 36.812 286.86 36.724C287.244 36.636 287.656 36.556 288.096 36.484C288.544 36.412 288.996 36.376 289.452 36.376C290.02 36.376 290.528 36.48 290.976 36.688C291.424 36.896 291.776 37.2 292.032 37.6C292.296 37.992 292.428 38.472 292.428 39.04C292.428 39.696 292.292 40.28 292.02 40.792C291.748 41.296 291.364 41.736 290.868 42.112C290.38 42.48 289.804 42.788 289.14 43.036C288.476 43.284 287.756 43.464 286.98 43.576L286.44 42.664C287.16 42.576 287.824 42.436 288.432 42.244C289.04 42.044 289.564 41.796 290.004 41.5C290.452 41.204 290.796 40.848 291.036 40.432C291.284 40.016 291.408 39.54 291.408 39.004ZM286.368 33.604C286.696 33.676 287.088 33.744 287.544 33.808C288.008 33.872 288.484 33.932 288.972 33.988C289.468 34.036 289.932 34.076 290.364 34.108C290.804 34.14 291.172 34.156 291.468 34.156L291.324 35.08C290.988 35.056 290.596 35.028 290.148 34.996C289.708 34.956 289.248 34.912 288.768 34.864C288.296 34.808 287.836 34.752 287.388 34.696C286.948 34.632 286.556 34.572 286.212 34.516L286.368 33.604ZM300.372 40.096L300.132 35.44L300.108 34.024H301.428L301.404 35.44L301.164 40.096H300.372ZM300.768 43.06C300.552 43.06 300.368 42.988 300.216 42.844C300.072 42.7 300 42.508 300 42.268C300 42.028 300.076 41.836 300.228 41.692C300.38 41.54 300.56 41.464 300.768 41.464C300.976 41.464 301.156 41.54 301.308 41.692C301.46 41.836 301.536 42.028 301.536 42.268C301.536 42.508 301.46 42.7 301.308 42.844C301.156 42.988 300.976 43.06 300.768 43.06Z" fill="white"/>
<defs>
<clipPath id="clip0_1341_43205">
<rect width="19" height="20" fill="white" transform="translate(59.7969 1)"/>
</clipPath>
</defs>
</svg>
