<svg width="100" height="22" viewBox="0 0 100 22" fill="none" xmlns="http://www.w3.org/2000/svg">
<g clip-path="url(#clip0_1345_43892)">
<path d="M18.0006 11.7657C17.9542 12.2821 17.9079 12.7987 17.8615 13.3155C17.7865 14.1668 17.7121 15.0182 17.6382 15.8696C17.6034 16.2708 17.565 16.672 17.5377 17.0734C17.5293 17.1972 17.4831 17.2465 17.3427 17.2456C16.612 17.2414 15.88 17.2582 15.1512 17.2347C14.9298 17.2276 14.7101 17.1462 14.477 17.1424C13.9794 17.1306 13.4827 17.092 12.9857 17.0678C11.3575 16.9885 9.72834 16.9517 8.09787 16.9773C7.97857 16.9794 7.83393 16.9461 7.83133 17.1247C7.83133 17.1507 7.80045 17.1642 7.77087 17.163C7.74378 17.1632 7.71685 17.1592 7.69123 17.1512C7.16659 16.9482 6.63578 17.0702 6.10627 17.1218C6.0107 17.1312 5.95772 17.1716 5.94699 17.2582C5.93399 17.3626 5.92456 17.4799 5.77699 17.492C5.61966 17.505 5.44219 17.545 5.32712 17.4C5.27186 17.3305 5.22408 17.3284 5.15191 17.3658C4.89101 17.5059 4.64593 17.6689 4.42022 17.8525C4.25769 17.9804 4.32498 18.2021 4.19268 18.3058C4.05161 18.4158 3.91704 18.5104 3.85658 18.6757C3.76816 18.9183 3.6674 19.1568 3.61246 19.4085C3.59567 19.4956 3.57066 19.5812 3.5377 19.6644C3.53105 19.6847 3.51996 19.7036 3.50508 19.72C3.49021 19.7364 3.47186 19.7499 3.45112 19.7597C3.43037 19.7695 3.40767 19.7754 3.38435 19.7771C3.36103 19.7788 3.33757 19.7763 3.31536 19.7696C3.21297 19.7448 3.16682 19.6753 3.17722 19.5795C3.18185 19.5354 3.19077 19.4918 3.20387 19.4492C3.225 19.3808 3.20127 19.3445 3.12878 19.3109C2.96626 19.2355 2.93603 19.1196 2.99876 18.8874C3.03549 18.7541 3.14569 18.7279 3.27506 18.7373C3.37777 18.745 3.43108 18.702 3.47009 18.6194C3.55948 18.4335 3.62709 18.2483 3.61766 18.0391C3.60889 17.8478 3.6661 17.8033 3.86958 17.79C3.94499 17.785 4.02008 17.7726 4.04121 17.7033C4.06559 17.6223 3.96482 17.5683 3.95929 17.4893C3.78149 17.5047 3.60401 17.5188 3.42686 17.5383C3.40638 17.5406 3.40573 17.5813 3.41776 17.6049C3.47139 17.7107 3.42913 17.8186 3.42426 17.925C3.41841 18.057 3.33357 18.1136 3.18664 18.1066C2.86842 18.0909 2.86777 18.0927 2.83754 18.3845C2.83006 18.455 2.81738 18.5266 2.75107 18.5687C2.52353 18.7138 2.55116 18.9584 2.4699 19.1597C2.44227 19.2284 2.51541 19.2334 2.57067 19.2396C2.89117 19.2747 2.98869 19.4165 2.88792 19.6991C2.84631 19.8153 2.74815 19.8338 2.6308 19.8338C2.31063 19.8338 2.31128 19.8339 2.28917 20.1268C2.27975 20.2542 2.26707 20.3812 2.25667 20.5083C2.25179 20.5693 2.27552 20.5985 2.35061 20.592C2.42636 20.5871 2.50239 20.5871 2.57814 20.592C2.78228 20.6014 2.86647 20.7007 2.83624 20.8867C2.82486 20.9566 2.79105 20.992 2.71044 20.9917C2.46665 20.9917 2.21799 21.0173 1.9807 20.9816C1.82662 20.9587 1.6693 20.9062 1.51457 20.8637C1.39723 20.8316 1.36407 20.653 1.41445 20.4649C1.44436 20.3529 1.53082 20.3232 1.64524 20.3214C1.87278 20.3181 1.87278 20.3164 1.90106 20.1118C1.91796 19.9901 1.93356 19.868 1.95307 19.7466C1.96834 19.6505 1.93356 19.6048 1.81915 19.5913C1.62119 19.5677 1.56853 19.4987 1.58511 19.3242C1.61144 19.0477 1.64817 19.0088 1.87083 19.0032C1.95339 19.0012 2.07041 19.0451 2.10812 18.9581C2.16598 18.8252 2.27357 18.6928 2.22124 18.5404C2.19002 18.4415 2.18009 18.338 2.19198 18.2357C2.20206 18.1007 2.26837 18.0096 2.43675 18.022C2.50793 18.0273 2.54499 17.9946 2.57684 17.943C2.70588 17.7264 2.87137 17.5294 3.06735 17.3591C3.09433 17.3364 3.13788 17.3119 3.12586 17.2765C3.10928 17.2288 3.05305 17.247 3.01241 17.2438C2.86029 17.232 2.73319 17.2376 2.74002 17.4322C2.74327 17.5338 2.6425 17.5907 2.53686 17.5845C2.36881 17.5742 2.28137 17.6606 2.19718 17.7705C2.0119 18.0122 1.86368 18.2696 1.71708 18.5331C1.54122 18.8499 1.43363 19.1771 1.33352 19.5129C1.29614 19.639 1.34132 19.6853 1.48207 19.6776C1.83702 19.6585 1.87505 19.7988 1.80907 20.1227C1.78924 20.22 1.70018 20.2666 1.58998 20.2648C1.52447 20.2687 1.45868 20.2635 1.39495 20.2492C1.23242 20.1991 1.20512 20.2642 1.21227 20.3924C1.22072 20.5398 1.20772 20.6872 1.21227 20.8346C1.2165 20.9445 1.17977 20.9979 1.04714 20.9928C0.847237 20.9858 0.646354 20.9928 0.446121 20.9902C0.385336 20.9902 0.304723 21.007 0.295297 20.9189C0.289082 20.8817 0.298742 20.8438 0.322305 20.8129C0.345867 20.782 0.381552 20.7605 0.422067 20.7526C0.512107 20.7284 0.605723 20.7385 0.696737 20.7458C0.787752 20.7532 0.821233 20.7196 0.820908 20.638C0.820908 20.5201 0.825783 20.4021 0.83781 20.2842C0.846912 20.194 0.809206 20.1548 0.71169 20.1584C0.700963 20.1584 0.689911 20.1566 0.679184 20.1584C0.329102 20.1879 0.284895 20.0145 0.354131 19.7098C0.380136 19.5972 0.484152 19.5721 0.604747 19.5624C0.71364 19.5538 0.848212 19.6355 0.923624 19.5432C0.982783 19.4707 0.982458 19.3572 1.00391 19.2608C1.04292 19.0869 1.11508 18.9222 1.17554 18.7541C1.19764 18.6922 1.21942 18.6318 1.16904 18.5723C1.1089 18.5009 1.10825 18.4178 1.11183 18.3332C1.12191 18.0848 1.15831 18.0476 1.43363 18.0346C1.46855 18.0344 1.50274 18.0256 1.53257 18.0092C1.5624 17.9927 1.58674 17.9692 1.60299 17.9412C1.73677 17.7447 1.88444 17.5562 2.04506 17.377C2.06846 17.3511 2.10357 17.3257 2.08926 17.2886C2.07171 17.2411 2.021 17.2462 1.9794 17.2459C1.79509 17.2444 1.61079 17.2459 1.42681 17.2444C1.249 17.2426 1.23828 17.2282 1.29679 17.0714C1.50904 16.504 1.74081 15.9427 1.93714 15.3703C2.22091 14.5432 2.42959 13.7008 2.61195 12.8519C2.95846 11.2419 3.31569 9.63371 3.65504 8.02226C3.81139 7.27947 4.03601 6.5579 4.41989 5.88614C4.88187 5.07815 5.4305 4.31339 6.05784 3.60294C6.63871 2.94444 7.28004 2.34078 8.04911 1.85973C8.8858 1.33594 9.79595 1.01908 10.8361 1.07832C10.9604 1.08857 11.0855 1.08639 11.2093 1.07184C11.454 1.03588 11.6839 1.05828 11.9003 1.17029C11.9285 1.18547 11.9609 1.19311 11.9937 1.19233C12.0265 1.19154 12.0583 1.18237 12.0856 1.16587C12.5215 0.93006 12.9542 0.965725 13.4057 1.14523C14.5622 1.60506 15.551 2.26355 16.3597 3.14341C17.2842 4.14883 17.855 5.32463 18.3224 6.54404C18.821 7.84305 19.0405 9.19186 19.1633 10.5566C19.3258 12.3546 19.3073 14.1583 19.2803 15.9604C19.2751 16.3236 19.2644 16.687 19.2553 17.051C19.2517 17.1931 19.1971 17.2518 19.0327 17.2473C18.6917 17.2382 18.35 17.2414 18.0091 17.2473C17.8745 17.2491 17.8098 17.2137 17.814 17.0793C17.8574 16.1084 17.8983 15.1372 17.9369 14.1656C17.9571 13.6457 17.9694 13.1251 17.9857 12.6049C17.9954 12.324 18.0286 12.0454 18.0006 11.7657ZM16.1631 14.2661C16.0191 14.3357 15.8796 14.4191 15.7223 14.4725C15.3267 14.6042 14.9552 14.565 14.6129 14.3416C14.5118 14.2753 14.427 14.1863 14.5222 14.0684C14.6175 13.9505 14.7218 13.9873 14.8336 14.0575C14.9832 14.1577 15.1687 14.2037 15.3537 14.1866C15.7337 14.1477 16.0093 13.9472 16.2593 13.707C16.3064 13.6616 16.3129 13.6026 16.3224 13.5437C16.3812 13.1738 16.4046 12.8015 16.4316 12.4292C16.4384 12.3346 16.4104 12.298 16.3064 12.2851C15.7213 12.2117 15.1362 12.1362 14.5547 12.0543C14.4328 12.0372 14.373 12.0787 14.3288 12.1722C14.0987 12.6494 14.0382 13.1251 14.3327 13.6018C14.4097 13.7267 14.3906 13.8343 14.283 13.8841C14.1422 13.949 14.0554 13.8759 13.9934 13.7724C13.8539 13.5422 13.7505 13.3008 13.7489 13.0326C13.7418 12.8482 13.7558 12.6637 13.7905 12.482C13.6992 12.5371 13.6403 12.5786 13.5757 12.6102C13.5406 12.6303 13.4986 12.6379 13.4577 12.6313C13.4169 12.6248 13.3802 12.6046 13.355 12.5748C13.3239 12.5464 13.3059 12.5083 13.3045 12.4683C13.3031 12.4282 13.3185 12.3892 13.3475 12.3591C13.3823 12.3215 13.4216 12.2875 13.4645 12.2577C13.6768 12.0976 13.8936 11.9423 14.1016 11.7778C14.1422 11.7419 14.1916 11.7153 14.2457 11.6999C14.2998 11.6845 14.3571 11.6809 14.413 11.6894C14.9919 11.7645 15.5715 11.8347 16.1504 11.9104C16.4699 11.9523 16.4719 11.9558 16.479 11.6631C16.4878 11.2997 16.5115 11.3412 16.1397 11.3536C16.0857 11.3554 16.0318 11.3619 15.9772 11.3657C15.3248 11.4155 14.6721 11.4662 14.0194 11.5131C13.8968 11.5219 13.7814 11.4901 13.7691 11.358C13.7567 11.226 13.8692 11.1836 13.9901 11.1712C14.1569 11.1541 14.3246 11.1441 14.4917 11.1323C15.0907 11.0901 15.6898 11.0465 16.2889 11.0079C16.4378 10.9984 16.4927 10.943 16.4875 10.8045C16.4748 10.4508 16.4725 10.0971 16.4592 9.74336C16.4294 8.95799 16.3302 8.17605 16.1628 7.40503C16.0139 6.7206 15.8052 6.04914 15.6206 5.3712C15.5634 5.16221 15.5029 4.95382 15.4437 4.74542C15.4437 4.92051 15.4629 5.09118 15.4814 5.26184C15.574 6.11173 15.6665 6.96162 15.759 7.81151C15.8536 8.68576 15.9456 9.56061 16.0428 10.4349C16.0539 10.5342 16.0249 10.5696 15.9128 10.5584C15.644 10.5313 15.3742 10.5106 15.105 10.4853C15.0339 10.4785 14.9617 10.4667 14.9497 10.383C14.8964 10.4145 14.8629 10.4602 14.7761 10.4511C13.9696 10.3653 13.1622 10.2887 12.3551 10.2079C11.3383 10.1062 10.3219 10.0016 9.30479 9.90106C9.10976 9.8819 9.08701 9.86244 9.10976 9.67763C9.22808 8.73145 9.35907 7.78645 9.50957 6.84381L9.62854 6.10014C9.59052 6.1377 9.56485 6.18415 9.55443 6.23425C9.22938 7.46654 8.90433 8.69893 8.57927 9.93142C8.55067 10.0396 8.59195 10.0788 8.70247 10.1083C9.11984 10.2132 9.53525 10.3258 9.951 10.4355C10.1415 10.4856 10.2182 10.569 10.1785 10.6836C10.1412 10.7924 10.0329 10.8183 9.8499 10.7688C9.47642 10.668 9.10228 10.5707 8.72782 10.4702C8.45608 10.3971 8.459 10.3547 8.39724 10.6444C8.36994 10.7727 8.31338 10.7871 8.18336 10.7376C8.02733 10.6786 7.97077 10.5999 8.03936 10.4561C8.04995 10.4333 8.05611 10.4091 8.05756 10.3845C8.06699 10.2492 7.93632 10.2686 7.8544 10.2397C7.77249 10.2108 7.72438 10.2433 7.70553 10.3243C7.6532 10.5551 7.59566 10.785 7.54073 11.0155C7.5339 11.045 7.51472 11.0777 7.54333 11.099C7.58136 11.1284 7.61744 11.0951 7.64345 11.0757C7.80597 10.9542 7.9763 10.9716 8.16353 11.0303C8.39334 11.1028 8.63063 11.1558 8.86402 11.2195C9.41899 11.3706 9.97375 11.5224 10.5283 11.6749C10.6453 11.7067 10.7308 11.7654 10.6947 11.8863C10.6586 12.0071 10.5488 12.0336 10.4226 12.0021C10.3391 11.9821 10.2562 11.9582 10.1727 11.9381C10.1327 11.9287 10.0888 11.8969 10.0508 11.9305C10.0128 11.9641 10.0508 12.0045 10.0628 12.0389C10.1506 12.2568 10.1766 12.4787 10.1129 12.7048C10.0833 12.8094 10.003 12.8663 9.88306 12.8448C9.77222 12.8251 9.72248 12.7511 9.72931 12.6491C9.73224 12.6099 9.74264 12.5713 9.74719 12.5312C9.79237 12.1589 9.48487 11.6908 9.0792 11.6336C8.82757 11.5964 8.5823 11.5298 8.34946 11.4356C8.05171 11.3177 7.80142 11.3522 7.55178 11.5269C7.51511 11.5501 7.48435 11.5802 7.46158 11.6151C7.43882 11.6499 7.42457 11.6888 7.41981 11.7292C7.3548 12.1253 7.40941 12.525 7.38113 12.9188C7.35415 13.2961 7.53975 13.4968 7.88658 13.6295C7.94152 13.6507 7.99385 13.6772 8.04911 13.6952C8.44178 13.8214 8.80388 13.7907 9.12179 13.5236C9.25181 13.4155 9.36428 13.4084 9.44489 13.4942C9.5255 13.5799 9.50437 13.6858 9.37825 13.7889C9.10033 14.015 8.78016 14.1347 8.40082 14.1196C8.1164 14.1082 7.86285 14.02 7.61777 13.8983C7.46044 13.8202 7.44451 13.8284 7.45719 13.9914C7.48547 14.3537 7.52383 14.7151 7.55308 15.0773C7.58071 15.4219 7.57876 15.4198 7.9568 15.4349C8.71384 15.4643 9.47089 15.4956 10.2276 15.5324C10.3359 15.5377 10.3999 15.543 10.3921 15.4145C10.3872 15.3308 10.4535 15.2671 10.5484 15.248C10.6434 15.2288 10.7178 15.2651 10.7451 15.342C10.7987 15.4929 10.9301 15.5566 11.0754 15.6005C11.6741 15.7821 12.2781 15.7809 12.881 15.62C13.0224 15.5822 13.1736 15.5363 13.2409 15.3906C13.2886 15.2904 13.3611 15.1996 13.5009 15.2589C13.6309 15.3137 13.6634 15.4234 13.6013 15.5336C13.5298 15.6639 13.5978 15.6881 13.7171 15.6925C14.3347 15.7155 14.9503 15.7367 15.5666 15.7635C15.694 15.7691 15.7509 15.7172 15.7902 15.6161C15.9482 15.2029 16.0785 14.7815 16.1803 14.354C16.1868 14.3393 16.1885 14.3234 16.1855 14.3078C16.1825 14.2923 16.1747 14.2779 16.1631 14.2661ZM9.94482 4.27174L9.92337 4.25966C9.91394 4.27646 9.90321 4.29297 9.89574 4.31036C9.55768 5.11269 9.21963 5.91473 8.90985 6.72738C8.53312 7.71453 8.17718 8.70846 7.87813 9.71831C7.84205 9.83916 7.86546 9.89516 8.00653 9.92817C8.1476 9.96119 8.20936 9.93436 8.24772 9.80231C8.38782 9.31802 8.54027 8.83668 8.68784 8.35475C9.10607 6.99355 9.52507 5.63255 9.94482 4.27174ZM8.86012 16.3863C8.52954 16.3863 8.19928 16.3863 7.86903 16.3863C7.8063 16.3863 7.72601 16.376 7.73901 16.4715C7.75039 16.5502 7.73218 16.651 7.87846 16.6407C7.9971 16.6322 8.11607 16.6219 8.23602 16.6198C9.32462 16.6024 10.4139 16.6198 11.5008 16.6493C11.8201 16.6578 12.1393 16.6675 12.4581 16.6835C13.3065 16.7259 14.1546 16.7719 15.0026 16.8167C15.0461 16.8214 15.0901 16.8192 15.1327 16.8102C15.167 16.8009 15.1968 16.7812 15.2171 16.7544C15.2373 16.7276 15.2467 16.6952 15.2438 16.6628C15.2396 16.6039 15.1658 16.6266 15.1223 16.6245C14.8086 16.611 14.4949 16.6018 14.1796 16.5883C13.4824 16.5588 12.7851 16.5246 12.0879 16.4975C11.0123 16.4565 9.93799 16.3787 8.86012 16.3863ZM4.04738 10.6748L4.01878 10.6733C4.00935 10.7161 3.9983 10.7588 3.99115 10.8018C3.84423 11.6891 3.6986 12.5766 3.58158 13.4679C3.46684 14.3446 3.38167 15.2232 3.30171 16.1028C3.29521 16.1735 3.25588 16.2723 3.32186 16.3118C3.3963 16.356 3.46131 16.2623 3.52892 16.2287C3.60466 16.1906 3.70218 16.1735 3.70868 16.0624C3.75029 15.3377 3.7946 14.6132 3.84163 13.8889C3.87933 13.3064 3.92256 12.7243 3.95994 12.1418C3.99147 11.6531 4.01845 11.1638 4.04738 10.6748ZM7.9867 15.7933C7.93567 15.7933 7.8544 15.7933 7.77314 15.7933C7.71561 15.7933 7.65905 15.8039 7.65872 15.8702C7.6584 15.9365 7.6649 16.0046 7.75266 16.022C7.80645 16.0292 7.86094 16.0312 7.91519 16.0279C8.43527 16.0279 8.95536 16.0123 9.47544 16.03C10.7028 16.0721 11.9299 16.1293 13.1573 16.1815C13.4499 16.1939 13.7424 16.211 14.0327 16.2245C14.4702 16.2457 14.9081 16.2661 15.3459 16.2882C15.4327 16.2926 15.5084 16.2693 15.514 16.1874C15.5198 16.0786 15.4129 16.124 15.356 16.1208C14.8213 16.0913 14.2866 16.0536 13.7512 16.0432C13.3793 16.0362 13.0075 15.9681 12.6343 16.0376C12.2667 16.1024 11.8896 16.1103 11.5191 16.0612C11.2766 16.0318 11.0474 15.9339 10.8069 15.9203C9.87688 15.8685 8.94658 15.8351 7.9867 15.7933ZM4.03341 17.1232C4.23266 17.082 4.47515 17.0893 4.57267 17.168C4.64191 17.2238 4.68579 17.2158 4.75307 17.1731C5.06967 16.9711 5.43081 16.8765 5.80657 16.8146C5.90409 16.799 6.00615 16.802 6.12805 16.7448C5.70548 16.6269 5.32127 16.509 4.95136 16.7884C4.91638 16.812 4.87324 16.8234 4.82979 16.8205C4.50051 16.7905 4.28435 16.9924 4.03341 17.1232ZM3.27701 17.1654C3.37777 17.0737 3.3794 16.9431 3.51527 16.9228C3.82992 16.8754 4.05193 16.6611 4.32985 16.5464C4.429 16.5057 4.42379 16.3955 4.39487 16.3244C4.36073 16.236 4.26842 16.2808 4.19983 16.3079C3.93231 16.4146 3.69145 16.5638 3.44051 16.6973C3.2354 16.8073 3.24125 16.9602 3.27701 17.1654Z" fill="white"/>
<path d="M11.732 18.8874C11.5695 18.8997 11.407 18.872 11.2477 18.8579C11.1479 18.8493 11.0562 18.814 11.0715 18.7076C11.0868 18.6012 11.1885 18.5991 11.286 18.6068C11.851 18.6513 12.4094 18.6407 12.9412 18.4317C13.055 18.3872 13.1639 18.3323 13.2741 18.2808C13.3556 18.2424 13.4421 18.2109 13.5016 18.2996C13.5682 18.3978 13.4866 18.4564 13.406 18.5001C13.0387 18.699 12.637 18.8087 12.2154 18.8603C12.0558 18.8797 11.8949 18.8997 11.732 18.8874Z" fill="white"/>
<path d="M5.219 18.239C5.21412 18.5043 5.17186 18.545 4.89589 18.5411C4.62708 18.5373 4.55881 18.4822 4.56109 18.2709C4.56402 18.0191 4.63748 17.9437 4.87737 17.9466C5.16146 17.9507 5.2229 18.0032 5.219 18.239Z" fill="white"/>
<path d="M5.98502 17.6958C5.98892 17.4792 6.06238 17.391 6.23661 17.3931C6.57206 17.3966 6.64585 17.4485 6.64195 17.6775C6.63773 17.9134 6.56394 18 6.37281 17.9994C6.06108 17.9982 5.98079 17.9355 5.98502 17.6958Z" fill="white"/>
<path d="M5.70001 19.296C5.69708 19.5389 5.635 19.6019 5.40063 19.5987C5.10256 19.5946 5.04307 19.5439 5.046 19.3016C5.04892 19.0593 5.11101 19.0012 5.35025 19.0051C5.63109 19.0098 5.70196 19.0687 5.70001 19.296Z" fill="white"/>
<path d="M4.53212 19.4738C4.52725 19.7391 4.47979 19.7851 4.2113 19.781C3.9272 19.7771 3.87032 19.7297 3.87584 19.5015C3.88202 19.2442 3.93435 19.1997 4.2256 19.2044C4.49052 19.2088 4.53635 19.2492 4.53212 19.4738Z" fill="white"/>
<path d="M2.93981 20.0005C3.21383 20.0043 3.26812 20.0497 3.26487 20.2711C3.26032 20.5307 3.21091 20.5806 2.96029 20.5773C2.66027 20.5735 2.60468 20.5293 2.60858 20.2982C2.61183 20.0456 2.66709 19.9963 2.93981 20.0005Z" fill="white"/>
<path d="M3.93299 20.8719C3.67295 20.8678 3.59916 20.818 3.60371 20.6496C3.61184 20.336 3.65182 20.2915 3.92324 20.2959C4.19466 20.3004 4.27072 20.357 4.26682 20.5574C4.26162 20.8191 4.20083 20.8763 3.93299 20.8719Z" fill="white"/>
</g>
<path d="M34.5124 18.256C33.7444 18.256 33.1097 18.144 32.6084 17.92C32.1071 17.6853 31.7071 17.3653 31.4084 16.96C31.1097 16.5547 30.8857 16.08 30.7364 15.536C30.5871 14.992 30.4857 14.4053 30.4324 13.776H29.6804V18H26.1764V6.992H30.7044C32.4537 6.992 33.7124 7.30133 34.4804 7.92C35.2591 8.528 35.6484 9.35467 35.6484 10.4C35.6484 11.0293 35.4777 11.5947 35.1364 12.096C34.7951 12.5867 34.2457 12.9973 33.4884 13.328C33.5311 13.5627 33.5684 13.7547 33.6004 13.904C33.6324 14.0533 33.6804 14.2187 33.7444 14.4C33.8831 14.784 34.0537 15.0507 34.2564 15.2C34.4697 15.3493 34.7577 15.424 35.1204 15.424C35.3551 15.424 35.5897 15.392 35.8244 15.328L36.0164 17.952C35.8031 18.0373 35.5737 18.1067 35.3284 18.16C35.0937 18.224 34.8217 18.256 34.5124 18.256ZM29.6804 11.584H30.2884C31.0777 11.584 31.6324 11.4987 31.9524 11.328C32.2831 11.1467 32.4484 10.8427 32.4484 10.416C32.4484 10.0533 32.3151 9.792 32.0484 9.632C31.7817 9.46133 31.3604 9.376 30.7844 9.376H29.6804V11.584ZM36.9089 18V7.456L40.2849 6.96V11.632C40.5089 11.0773 40.8609 10.6453 41.3409 10.336C41.8209 10.0267 42.3969 9.872 43.0689 9.872C44.1142 9.872 44.9249 10.2347 45.5009 10.96C46.0769 11.6747 46.3649 12.688 46.3649 14V18H42.9889V13.824C42.9889 12.8747 42.6049 12.4 41.8369 12.4C41.3782 12.4 41.0049 12.5707 40.7169 12.912C40.4289 13.2427 40.2849 13.6907 40.2849 14.256V18H36.9089ZM52.0231 21.12C51.6178 21.12 51.2391 21.0933 50.8871 21.04C50.5351 20.9867 50.2578 20.9227 50.0551 20.848L50.3111 18.528C50.5031 18.5707 50.7111 18.6027 50.9351 18.624C51.1591 18.656 51.3778 18.672 51.5911 18.672C52.3058 18.672 52.8178 18.5227 53.1271 18.224C53.4471 17.9253 53.6071 17.4667 53.6071 16.848V15.936C53.3511 16.5867 52.9885 17.0613 52.5191 17.36C52.0498 17.648 51.4951 17.792 50.8551 17.792C49.8631 17.792 49.0951 17.4347 48.5511 16.72C48.0071 15.9947 47.7351 14.976 47.7351 13.664V9.984H51.1111V13.84C51.1111 14.7893 51.4471 15.264 52.1191 15.264C52.5351 15.264 52.8658 15.0933 53.1111 14.752C53.3671 14.4107 53.4951 13.9627 53.4951 13.408V9.984H56.8711V16.128C56.8711 17.8347 56.4498 19.0933 55.6071 19.904C54.7645 20.7147 53.5698 21.12 52.0231 21.12ZM58.4714 18V9.984H61.7994V11.728C62.0341 11.1307 62.3701 10.672 62.8074 10.352C63.2554 10.032 63.8154 9.872 64.4874 9.872C65.1487 9.872 65.7087 10.0373 66.1674 10.368C66.6367 10.688 66.9674 11.104 67.1594 11.616C67.5221 11.072 67.9487 10.6453 68.4394 10.336C68.9407 10.0267 69.5434 9.872 70.2474 9.872C71.2394 9.872 72.0074 10.2347 72.5514 10.96C73.0954 11.6747 73.3674 12.688 73.3674 14V18H69.9914V13.824C69.9914 12.8747 69.6554 12.4 68.9834 12.4C68.5674 12.4 68.2314 12.5707 67.9754 12.912C67.7301 13.2427 67.6074 13.6907 67.6074 14.256V18H64.2314V13.824C64.2314 13.3227 64.1461 12.96 63.9754 12.736C63.8047 12.512 63.5541 12.4 63.2234 12.4C62.8074 12.4 62.4714 12.5653 62.2154 12.896C61.9701 13.216 61.8474 13.6693 61.8474 14.256V18H58.4714ZM79.1013 18.128C78.1946 18.128 77.3946 17.952 76.7013 17.6C76.0079 17.248 75.4639 16.7627 75.0693 16.144C74.6853 15.5147 74.4933 14.7947 74.4933 13.984C74.4933 13.152 74.6906 12.432 75.0853 11.824C75.4906 11.2053 76.0399 10.7253 76.7333 10.384C77.4266 10.0427 78.2213 9.872 79.1173 9.872C80.0346 9.872 80.8399 10.048 81.5333 10.4C82.2266 10.7413 82.7653 11.2213 83.1493 11.84C83.5333 12.448 83.7253 13.1627 83.7253 13.984C83.7253 14.8053 83.5279 15.5307 83.1333 16.16C82.7493 16.7787 82.2106 17.264 81.5173 17.616C80.8239 17.9573 80.0186 18.128 79.1013 18.128ZM79.1333 15.728C79.5706 15.728 79.9279 15.568 80.2053 15.248C80.4933 14.9173 80.6373 14.496 80.6373 13.984C80.6373 13.472 80.4986 13.056 80.2213 12.736C79.9439 12.4053 79.5919 12.24 79.1653 12.24C78.7066 12.24 78.3333 12.4053 78.0453 12.736C77.7679 13.056 77.6293 13.472 77.6293 13.984C77.6293 14.496 77.7679 14.9173 78.0453 15.248C78.3333 15.568 78.6959 15.728 79.1333 15.728ZM87.5005 18.128C87.0205 18.128 86.5352 18.08 86.0445 17.984C85.5538 17.888 85.1112 17.7547 84.7165 17.584L85.1805 15.568C85.4258 15.696 85.7618 15.808 86.1885 15.904C86.6152 15.9893 86.9938 16.032 87.3245 16.032C87.8578 16.032 88.1245 15.888 88.1245 15.6C88.1245 15.4613 88.0392 15.36 87.8685 15.296C87.7085 15.232 87.4952 15.1787 87.2285 15.136C86.9725 15.0827 86.6952 15.0187 86.3965 14.944C86.0978 14.8587 85.8152 14.736 85.5485 14.576C85.2925 14.4053 85.0792 14.1653 84.9085 13.856C84.7485 13.5467 84.6685 13.1413 84.6685 12.64C84.6685 11.7973 84.9992 11.1253 85.6605 10.624C86.3325 10.1227 87.2498 9.872 88.4125 9.872C88.8605 9.872 89.2765 9.904 89.6605 9.968C90.0552 10.032 90.4285 10.1653 90.7805 10.368L90.4445 12.32C89.8792 12.0853 89.2872 11.968 88.6685 11.968C88.2738 11.968 87.9858 12 87.8045 12.064C87.6338 12.128 87.5485 12.2347 87.5485 12.384C87.5485 12.5013 87.6338 12.592 87.8045 12.656C87.9752 12.72 88.1938 12.784 88.4605 12.848C88.7378 12.9013 89.0258 12.9813 89.3245 13.088C89.6232 13.184 89.9058 13.3227 90.1725 13.504C90.4498 13.6853 90.6738 13.9307 90.8445 14.24C91.0152 14.5387 91.1005 14.928 91.1005 15.408C91.1005 16.2613 90.7858 16.928 90.1565 17.408C89.5272 17.888 88.6418 18.128 87.5005 18.128ZM94.7974 18.128C94.3174 18.128 93.8321 18.08 93.3414 17.984C92.8507 17.888 92.4081 17.7547 92.0134 17.584L92.4774 15.568C92.7227 15.696 93.0587 15.808 93.4854 15.904C93.9121 15.9893 94.2907 16.032 94.6214 16.032C95.1547 16.032 95.4214 15.888 95.4214 15.6C95.4214 15.4613 95.3361 15.36 95.1654 15.296C95.0054 15.232 94.7921 15.1787 94.5254 15.136C94.2694 15.0827 93.9921 15.0187 93.6934 14.944C93.3947 14.8587 93.1121 14.736 92.8454 14.576C92.5894 14.4053 92.3761 14.1653 92.2054 13.856C92.0454 13.5467 91.9654 13.1413 91.9654 12.64C91.9654 11.7973 92.2961 11.1253 92.9574 10.624C93.6294 10.1227 94.5467 9.872 95.7094 9.872C96.1574 9.872 96.5734 9.904 96.9574 9.968C97.3521 10.032 97.7254 10.1653 98.0774 10.368L97.7414 12.32C97.1761 12.0853 96.5841 11.968 95.9654 11.968C95.5707 11.968 95.2827 12 95.1014 12.064C94.9307 12.128 94.8454 12.2347 94.8454 12.384C94.8454 12.5013 94.9307 12.592 95.1014 12.656C95.2721 12.72 95.4907 12.784 95.7574 12.848C96.0347 12.9013 96.3227 12.9813 96.6214 13.088C96.9201 13.184 97.2027 13.3227 97.4694 13.504C97.7467 13.6853 97.9707 13.9307 98.1414 14.24C98.3121 14.5387 98.3974 14.928 98.3974 15.408C98.3974 16.2613 98.0827 16.928 97.4534 17.408C96.8241 17.888 95.9387 18.128 94.7974 18.128Z" fill="white"/>
<defs>
<clipPath id="clip0_1345_43892">
<rect width="19" height="20" fill="white" transform="translate(0.296387 1)"/>
</clipPath>
</defs>
</svg>
